SplineFontDB: 3.0
FontName: RKLirioDoVale-Regular
FullName: RK Lirio do Vale Regular
FamilyName: Lirio do Vale
Weight: Regular
Copyright: Copyright (c) 2015, Luis Walker
UComments: "2015-7-4: Created with FontForge (http://fontforge.org)"
Version: 001.000
ItalicAngle: 0
UnderlinePosition: -100
UnderlineWidth: 50
Ascent: 700
Descent: 300
InvalidEm: 0
LayerCount: 2
Layer: 0 0 "Back" 1
Layer: 1 0 "Fore" 0
XUID: [1021 1010 -1317725610 8461834]
OS2Version: 0
OS2_WeightWidthSlopeOnly: 0
OS2_UseTypoMetrics: 1
CreationTime: 1436019825
ModificationTime: 1438146937
OS2TypoAscent: 0
OS2TypoAOffset: 1
OS2TypoDescent: 0
OS2TypoDOffset: 1
OS2TypoLinegap: 0
OS2WinAscent: 0
OS2WinAOffset: 1
OS2WinDescent: 0
OS2WinDOffset: 1
HheadAscent: 0
HheadAOffset: 1
HheadDescent: 0
HheadDOffset: 1
OS2CapHeight: 0
OS2XHeight: 0
OS2Vendor: 'PfEd'
MarkAttachClasses: 1
DEI: 91125
LangName: 1033
Encoding: UnicodeBmp
UnicodeInterp: none
NameList: AGL For New Fonts
DisplaySize: -48
AntiAlias: 1
FitToEm: 1
WinInfo: 20 20 6
BeginPrivate: 0
EndPrivate
Grid
-43 604 m 1
 301 604 l 1
 301 604 l 1
 -43 604 l 1
 -43 604 l 1
-39 467 m 1
 305 467 l 1
 305 467 l 1
 -39 467 l 1
 -39 467 l 1
-37 329 m 1
 312 329 l 1
 312 329 l 1
 -37 329 l 1
 -37 329 l 1
-42 200 m 1
 312 200 l 1
 312 200 l 1
 -42 200 l 1
 -42 200 l 1
-36 -202 m 1
 297 -202 l 1
 297 -202 l 1
 -36 -202 l 1
 -36 -202 l 1
EndSplineSet
TeXData: 1 0 0 346030 173015 115343 0 1048576 115343 783286 444596 497025 792723 393216 433062 380633 303038 157286 324010 404750 52429 2506097 1059062 262144
BeginChars: 65537 94

StartChar: o
Encoding: 111 111 0
Width: 322
VWidth: 0
Flags: HW
LayerCount: 2
Back
Fore
SplineSet
149 302 m 3
 93.2734375 302 80 245 80 171 c 3
 80 95 110 44 149 44 c 3
 212 44 224 103 224 172 c 3
 224 239 204 302 149 302 c 3
18 141 m 3
 18 227.323242188 73 349 165 349 c 3
 230 349 291 297 291 196 c 3
 291 87 211 -8 131 -8 c 3
 58.97265625 -8 18 72 18 141 c 3
EndSplineSet
EndChar

StartChar: n
Encoding: 110 110 1
Width: 316
VWidth: 0
Flags: HW
LayerCount: 2
Back
Fore
SplineSet
51 -10 m 1
 20 13 l 17
 20 13 37 116 37 183 c 3
 37 264 23 322 23 322 c 1
 57 346 l 1
 74 330 l 1
 74 330 88 266 88 177 c 1
 109.057617188 222.354492188 143.73046875 340 205 340 c 3
 232 340 255 306 255 279 c 3
 255 206 241 161 241 99 c 7
 241 79 241 46 249 46 c 7
 258 46 264 48 268 55 c 5
 296 24 l 21
 281 10 267 -9 241 -9 c 7
 211 -9 181 38 181 68 c 7
 181 131.866210938 198 208.479492188 198 254 c 3
 198 271.9140625 190.415039062 282 180 282 c 3
 164.791015625 282 108.075195312 175.965820312 80 82 c 1
 77 16 l 1
 51 -10 l 1
EndSplineSet
EndChar

StartChar: i
Encoding: 105 105 2
Width: 175
VWidth: 0
Flags: HW
HStem: -5 41<98.3345 151.776> 403 68<27.3894 91.3355>
VStem: 22 74<406.766 465.238> 42 59.9688<76.5877 321.958>
LayerCount: 2
Back
SplineSet
42.2841796875 206 m 21xb4
 10.2841796875 191 -62.7158203125 143.931640625 -62.7158203125 84 c 7
 -62.7158203125 64.6865234375 -45.7158203125 50 -28.7158203125 50 c 7
 -0.7158203125 50 19.2841796875 63 35.2841796875 80 c 5
 42.2841796875 206 l 21xb4
-40.7158203125 240 m 5
 -75.7158203125 218 l 5
 -75.7158203125 218 -91.7158203125 238 -91.7158203125 256 c 7
 -91.7158203125 306 -27.8447265625 347 26.2841796875 347 c 7
 74.2841796875 347 100.284179688 299 100.284179688 261 c 7xaa
 100.284179688 179 95.2841796875 160 95.2841796875 78 c 7
 95.2841796875 62 100.284179688 35 116.284179688 35 c 7
 128.284179688 35 136.284179688 44 147.284179688 56 c 5
 170.284179688 29 l 5
 157.284179688 11 138.284179688 -6 108.284179688 -6 c 31x64
 74.2841796875 -6 53.2841796875 17 42.2841796875 39 c 5
 22.2841796875 18 1.2841796875 -6 -33.7158203125 -6 c 23
 -67.978515625 -6 -119.715820312 43.3671875 -119.715820312 77 c 7xb4
 -119.715820312 160.45703125 -4.7158203125 218 45.2841796875 245 c 5
 45.2841796875 245 47.2841796875 263 47.2841796875 274 c 7
 47.2841796875 291 41.2841796875 314 16.2841796875 314 c 7
 -21.7158203125 314 -51.7158203125 296 -51.7158203125 266 c 7xaa
 -51.7158203125 255 -40.7158203125 240 -40.7158203125 240 c 5
EndSplineSet
Fore
SplineSet
55 471 m 7
 74 471 96 453 96 434 c 7
 96 417 77 403 60 403 c 7
 43 403 22 417 22 434 c 7
 22 448 41 471 55 471 c 7
42 183 m 3
 42 264 28 322 28 322 c 1
 70.96875 346 l 1
 87.96875 330 l 1
 87.96875 330 101.96875 266 101.96875 177 c 3
 101.96875 147.482933331 95.1299259788 116.685977642 95.1299259788 86.6441559766 c 3
 95.1299259788 77.6355094083 95.5165821342 47 103 47 c 3
 112 47 118 49 122 56 c 1
 150 25 l 1
 135 11 121 -8 95 -8 c 3
 64.9961780077 -8 35 35.2706940837 35 69 c 3
 35 105.460204658 42 147.941383775 42 183 c 3
EndSplineSet
EndChar

StartChar: a
Encoding: 97 97 4
Width: 290
VWidth: 0
Flags: HW
LayerCount: 2
Back
Fore
SplineSet
84 240 m 1
 49 218 l 1
 49 218 33 238 33 256 c 0
 33 306 96.87109375 347 151 347 c 0
 199 347 225 299 225 261 c 0
 225 179 220 160 220 78 c 0
 220 65.2368317541 220.6156871 45.9999999669 227 46 c 3
 236 46 242 48 246 55 c 1
 274 24 l 1
 259 10 245 -9 219 -9 c 3
 197.977089057 -9 176.954178114 14.0802787473 166.254983057 38.2169091281 c 1
 146.476673162 17.4080713833 125.565690719 -6.00000001908 91 -6 c 0
 56.7373046875 -6 5 43.3671875 5 77 c 0
 5 160.45703125 120 218 170 245 c 1
 170 245 172 263 172 274 c 0
 172 291 166 314 141 314 c 0
 103 314 73 296 73 266 c 0
 73 255 84 240 84 240 c 1
167 206 m 1
 135 191 62 143.931640625 62 84 c 0
 62 64.6865234375 79 50 96 50 c 0
 124 50 144 63 160 80 c 1
 167 206 l 1
EndSplineSet
EndChar

StartChar: s
Encoding: 115 115 5
Width: 242
VWidth: 0
Flags: HW
LayerCount: 2
Back
SplineSet
44 206 m 17xb4
 76 191 149 143.931640625 149 84 c 3
 149 64.6865234375 132 50 115 50 c 3
 87 50 67 63 51 80 c 1
 44 206 l 17xb4
127 240 m 1
 162 218 l 1
 162 218 178 238 178 256 c 3
 178 306 114.12890625 347 60 347 c 3
 12 347 -14 299 -14 261 c 3xaa
 -14 179 -9 160 -9 78 c 3
 -9 62 -14 35 -30 35 c 3
 -42 35 -50 44 -61 56 c 1
 -84 29 l 1
 -71 11 -52 -6 -22 -6 c 27x64
 12 -6 33 17 44 39 c 1
 64 18 85 -6 120 -6 c 19
 154.262695312 -6 206 43.3671875 206 77 c 3xb4
 206 160.45703125 91 218 41 245 c 1
 41 245 39 263 39 274 c 3
 39 291 45 314 70 314 c 3
 108 314 138 296 138 266 c 3xaa
 138 255 127 240 127 240 c 1
EndSplineSet
Fore
SplineSet
5 91 m 1
 27 111 l 1
 27 111 60 50 114 50 c 3
 145 50 170 73 170 91 c 3
 170 145 22 175 22 266 c 3
 22 314 82 347 118 347 c 3
 167.163085938 347 203 314 203 314 c 1
 189 269 l 1
 164 272 l 1
 164 272 145 317 122 317 c 3
 86 317 74 291 74 272 c 3
 74 222 218 188 218 106 c 3
 218 67 168 -5 111 -5 c 3
 60 -5 5 91 5 91 c 1
EndSplineSet
EndChar

StartChar: l
Encoding: 108 108 6
Width: 175
VWidth: 0
Flags: HW
HStem: -5 41<90.3345 143.776>
VStem: 27 60<37.015 457.089> 34 59.9688<70.8989 597.958>
LayerCount: 2
Back
Fore
SplineSet
37 456 m 0
 37 537 23 595 23 595 c 1
 62.96875 619 l 1
 79.96875 603 l 1
 79.96875 603 93.96875 539 93.96875 450 c 2
 87.1611328125 80.7255859375 l 2
 87.591796875 63.4931640625 89.17578125 46 95 46 c 0
 104 46 110 48 114 55 c 1
 142 24 l 1
 131 7 113 -9 87 -9 c 0
 55.869140625 -9 30 34.7158203125 30 68 c 0
 30.2275390625 112.494140625 37 420.166992188 37 456 c 0
EndSplineSet
EndChar

StartChar: b
Encoding: 98 98 7
Width: 300
VWidth: 0
Flags: HW
LayerCount: 2
Back
Fore
SplineSet
76.998046875 300.297851562 m 1
 99.87890625 329.375 133.052603067 349 170 349 c 3
 235 349 280 297 280 196 c 3
 280 87 196 -6 116 -6 c 3
 69.5786195693 -6 21 35.3876953125 21 69 c 0
 21 133.674804688 30.126953125 396.38671875 30.126953125 474.358398438 c 3
 30.126953125 555.358398438 16.126953125 613.358398438 16.126953125 613.358398438 c 1
 56.095703125 637.358398438 l 1
 70.095703125 621.358398438 l 1
 70.095703125 621.358398438 84.095703125 557.358398438 84.095703125 468.358398438 c 0
 81.4501953125 412.233398438 77.6201171875 357.71875 76.998046875 300.297851562 c 1
75.03515625 90.3525390625 m 1
 87.4169921875 56.6240234375 110.586827032 34.9999999989 134 35 c 3
 197 35 213 103 213 172 c 3
 213 239 209 302 154 302 c 3
 119.918392242 302 91.2353515625 280.6796875 76.42578125 247.189453125 c 1
 75.755859375 184.341796875 75.1796875 126.307617188 75.03515625 90.3525390625 c 1
EndSplineSet
EndChar

StartChar: e
Encoding: 101 101 8
Width: 252
VWidth: 0
Flags: HW
LayerCount: 2
Back
SplineSet
160 302 m 3
 104.2734375 302 71 245 71 171 c 3
 71 95 101 44 140 44 c 3
 203 44 235 103 235 172 c 3
 235 239 215 302 160 302 c 3
9 141 m 3
 9 227.323242188 84 349 176 349 c 3
 241 349 302 297 302 196 c 3
 302 87 202 -14 122 -14 c 3
 49.97265625 -14 9 72 9 141 c 3
EndSplineSet
Fore
SplineSet
68 178 m 1
 94 190 165 226 165 283 c 3
 165 300 159 309 142 309 c 3
 91 309 68 178 68 178 c 1
215 88 m 1
 231 74 l 1
 231 74 179 -12 120 -12 c 3
 54 -12 10 69.9931640625 10 146 c 3
 10 242 98 349 164 349 c 3
 200 349 215 326 215 290 c 3
 215 211 102 159 71 146 c 1
 81 101 95 44 144 44 c 3
 188 44 215 88 215 88 c 1
EndSplineSet
EndChar

StartChar: p
Encoding: 112 112 9
Width: 317
VWidth: 0
Flags: HW
LayerCount: 2
Back
Fore
SplineSet
95.037109375 90.3525390625 m 5
 107.418945312 56.6240234375 127.588867188 35 151.001953125 35 c 0
 214.001953125 35 230.001953125 103 230.001953125 172 c 0
 230.001953125 239 226.001953125 302 171.001953125 302 c 0
 136.919921875 302 111.237304688 267.381835938 96.427734375 233.891601562 c 1
 95.9433781871 188.452495401 95.1933287174 129.215267084 95.037109375 90.3525390625 c 5
97.1997659772 287.252394092 m 2
 97.2001953125 287.252929688 l 2
 120.056640625 316.268554688 150.162109375 349 187.001953125 349 c 0
 252.001953125 349 297.001953125 297 297.001953125 196 c 0
 297.001953125 87 213.001953125 -6 133.001953125 -6 c 0
 117.026367188 -6 100.439453125 -1.09765625 85.5537109375 6.7021484375 c 1
 85.8408203125 -2.212890625 86.001953125 -11.462890625 86.001953125 -21 c 0
 86.001953125 -73.978515625 76.62109375 -126.286132812 75.001953125 -182 c 1
 49.001953125 -208 l 1
 18.001953125 -185 l 1
 30.3519473024 -110.171952103 40.0311070755 61.5131199262 43.030901433 183.700137556 c 0
 42.9506259134 264.334014053 29.0312499953 322 29.03125 322 c 2
 65 346 l 1
 82 330 l 1
 82 330 85.899294235 312.174654926 89.5821705892 282.256563795 c 1
 97 287 l 1
 97 245.96875 98.0009765625 379.31640625 97 287 c 1
 97.0662650899 287.083805849 97.1325301797 287.168584113 97.1997659772 287.252394092 c 2
EndSplineSet
EndChar

StartChar: d
Encoding: 100 100 10
Width: 357
VWidth: 0
Flags: HW
LayerCount: 2
Back
Fore
SplineSet
132 302 m 0
 76.2734375 302 63 246 63 172 c 0
 63 96 93 44 132 44 c 0
 170.288085938 44 199.756835938 76.873046875 214.630859375 118.151367188 c 1
 215.525390625 161.579101562 217.254882812 218.051757812 219.047851562 275.534179688 c 1
 207.951171875 293.223632812 181.506835938 302 132 302 c 0
221.024414062 339.087890625 m 1
 222.119140625 374.759765625 223.342773438 450.553710938 223.342773438 459 c 0
 223.342773438 540 209.342773438 598 209.342773438 598 c 1
 249.311523438 622 l 1
 262.311523438 606 l 1
 262.311523438 606 276.311523438 542 276.311523438 453 c 0
 276.311523438 333.327148438 267 171.41796875 267 75 c 0
 267 62.9697265625 268.1640625 46 274 46 c 0
 283 46 289 48 293 55 c 1
 321 24 l 1
 306 10 292 -9 266 -9 c 0
 243.6015625 -9 228.203125 17.2001953125 218.290039062 42.962890625 c 1
 189.486328125 11.498046875 150.242602639 -8.00000007232 114 -8 c 0
 41.97265625 -8 11 72 11 141 c 0
 11 227.323242188 56 349 148 349 c 0
 177.81640625 349 203.609375 345.6796875 221.024414062 339.087890625 c 1
EndSplineSet
EndChar

StartChar: u
Encoding: 117 117 11
Width: 300
VWidth: 0
Flags: HW
LayerCount: 2
Back
Fore
SplineSet
185 156 m 1
 164 111 129 -7 68 -7 c 0
 41 -7 18 27 18 54 c 0
 18 130 13 322 13 322 c 1
 47 346 l 1
 73 329 l 1
 73 329 75 159 75 79 c 0
 75 61 83 51 93 51 c 0
 108 51 165 157 193 251 c 1
 196 317 l 1
 222 343 l 1
 253 320 l 1
 253 320 236 217 236 150 c 0
 236 128.569668178 236.749810811 90.6434985037 242.840488348 64.4564828102 c 0
 248.166657279 53.9222353091 255.403701032 45.9999999199 260 46 c 0
 269 46 275 48 279 55 c 1
 307 24 l 1
 292 10 278 -9 252 -9 c 0
 241.023949661 -9 230.047899322 -2.70859665651 220.541099233 6.73980962831 c 0
 212.204483682 13.6300299783 205.7879233 23.247136778 200.859888349 34.7632975448 c 0
 196.288690929 44.16396416 193.227510071 53.8887142711 192.297904139 62.6115566896 c 0
 186.229829632 90.7074036281 184.999999923 124.14430662 185 156 c 1
EndSplineSet
EndChar

StartChar: q
Encoding: 113 113 12
Width: 322
VWidth: 0
Flags: HW
LayerCount: 2
Back
Fore
SplineSet
216 48 m 5
 193 19 163 -1 126 -1 c 7
 61 -1 16 51 16 152 c 7
 16 261 100 354 180 354 c 7
 226 354 278 313 278 279 c 4
 278 214 268 -48 268 -126 c 7
 268 -207 282 -196 282 -196 c 5
 239 -220 l 5
 222 -204 l 5
 222 -204 204 -209 208 -120 c 4
 211 -64 215 -9 216 48 c 5
218 258 m 5
 206 292 185 313 162 313 c 7
 99 313 83 245 83 176 c 7
 83 109 87 46 142 46 c 7
 176 46 201 68 216 101 c 5
 217 164 218 222 218 258 c 5
EndSplineSet
EndChar

StartChar: f
Encoding: 102 102 13
Width: 224
VWidth: 0
Flags: W
HStem: 285 40<28 67> 298 39<124 202> 566 38<139.03 200.968>
VStem: 67 57<-184 285 337 555.574>
LayerCount: 2
Back
Fore
SplineSet
102 -216 m 5x70
 67 -188 l 5
 67 285 l 5
 28 285 l 5xb0
 0 298 l 29x70
 14 325 l 5xb0
 67 329 l 5
 67 329 67 431 67 467 c 7
 67 540 89 604 162 604 c 7
 201 604 254 568 254 568 c 5
 216 524 l 5
 216 524 200 566 166 566 c 7
 142.083478514 566 124 538 124 467 c 7
 124 428 124 376 124 337 c 29
 210 339 l 5
 230 323 l 29
 202 298 l 5
 124 298 l 5
 124 -184 l 5
 102 -216 l 5x70
EndSplineSet
EndChar

StartChar: h
Encoding: 104 104 14
Width: 300
VWidth: 0
Flags: HW
LayerCount: 2
Back
Fore
SplineSet
87 177 m 1
 108 222 143 340 204 340 c 3
 231 340 254 306 254 279 c 3
 254 206 240 161 240 99 c 3
 240 79 240 46 248 46 c 3
 257 46 263 48 267 55 c 1
 295 24 l 17
 280 10 266 -9 240 -9 c 3
 210 -9 180 38 180 68 c 3
 180 132 197 208 197 254 c 3
 197 272 189 282 179 282 c 3
 164 282 107 176 79 82 c 1
 76 16 l 1
 50 -10 l 1
 19 13 l 17
 19 13 36 116 36 183 c 3
 36 264 22 594 22 594 c 1
 56 618 l 1
 73 602 l 1
 73 602 87 266 87 177 c 1
EndSplineSet
EndChar

StartChar: v
Encoding: 118 118 15
Width: 288
VWidth: 0
Flags: HW
LayerCount: 2
Back
Fore
SplineSet
110 -20 m 25
 80 4 l 1
 71.306640625 92.37890625 24.58984375 283.104492188 10 329 c 1
 43 350 l 1
 66 329 l 1
 77.3388671875 292.77734375 113.07421875 128.928710938 125 64 c 1
 158.092773438 128.861328125 199 186.71484375 199 281 c 3
 199 297 188 314 188 314 c 1
 223 354 l 1
 223 354 254 334 254 314 c 3
 254 201.875 187.004882812 89.8037109375 149 2 c 1
 110 -20 l 25
EndSplineSet
EndChar

StartChar: m
Encoding: 109 109 16
Width: 466
VWidth: 0
Flags: W
HStem: -9 55<381 431.273> 282 58<161.827 222.5 316.827 373.5>
VStem: 37 51<177 321.958> 175 57<16 135.363> 198 45<177 279.377> 336 60<46.283 263.71> 353 57<86.4513 281.772>
LayerCount: 2
Back
Fore
SplineSet
205 340 m 3xea
 144 340 109 222 88 177 c 5
 88 266 74 330 74 330 c 5
 57 346 l 5
 23 322 l 5
 23 322 37 264 37 183 c 7
 37 116 20 13 20 13 c 13
 51 -10 l 5
 77 16 l 5
 80 82 l 5
 108 176 165 282 180 282 c 3
 190 282 198 272 198 254 c 3xea
 198 201 177 22 175 13 c 9
 206 -10 l 1
 232 16 l 1
 235 82 l 1
 263 176 320 282 335 282 c 3
 345 282 353 272 353 254 c 3xf2
 353 208 336 132 336 68 c 3
 336 38 366 -9 396 -9 c 3
 422 -9 436 10 451 24 c 9
 423 55 l 1
 419 48 413 46 404 46 c 3
 396 46 396 79 396 99 c 3xe4
 396 161 410 206 410 279 c 3
 410 306 387 340 360 340 c 3
 299 340 264 222 243 177 c 1
 243 224 240 340 205 340 c 3xea
EndSplineSet
EndChar

StartChar: r
Encoding: 114 114 17
Width: 339
VWidth: 0
Flags: HW
LayerCount: 2
Back
Fore
SplineSet
225 270 m 0
 225 287.9140625 208.415039062 303 198 303 c 0
 188.617727263 303 156.589921976 254.65670287 126.8357287 195.555730347 c 1
 133.220251013 193.612634948 139.481281042 192 148 192 c 0
 191 192 225 224.479492188 225 270 c 0
100.534461749 138.543703743 m 1
 92.4746336268 119.232541627 85.3807302855 100.008948096 80 82 c 1
 77 16 l 1
 51 -10 l 1
 20 13 l 1
 20 13 37 116 37 183 c 0
 37 264 21 331 21 331 c 1
 55 355 l 1
 72 339 l 1
 72 339 88 266 88 177 c 1
 109.057617188 222.354492188 151.73046875 345 213 345 c 0
 240 345 272 306 272 279 c 0
 272 173.727692319 188 159 140 153 c 1
 192 115 242.98333796 56 273 56 c 0
 292 56 304 60 316 77 c 1
 339 54 l 1
 328 27 310 -10 282 -10 c 0
 225.247761805 -10 163.869243029 98.254965584 100.534461749 138.543703743 c 1
EndSplineSet
EndChar

StartChar: scriptr
Encoding: 65536 -1 18
Width: 301
VWidth: 0
Flags: HW
LayerCount: 2
Back
Fore
SplineSet
98 200 m 1
 105 223 110.825195312 236.344726562 115 260 c 0
 118 277 117 311 97 311 c 3
 79 311 67 277 67 253 c 3
 67 210.168945312 83 200 98 200 c 1
19 6 m 1
 7 22 l 17
 20.8822134346 43.4543298535 66.1515524348 121.378881087 82 161 c 17
 54 161 25 203 25 239 c 3
 25 292 54 347 107 347 c 27
 136 347 146 314 146 285 c 3
 146 253 141 231 133 211 c 9
 162 221 169 232 200 232 c 3
 219 232 236 219 236 200 c 3
 236 143 204 123 204 66 c 27
 204 54 208 38 220 38 c 3
 244 38 260 49 276 65 c 9
 295 45 l 17
 277 24 255 0 221 0 c 3
 180 0 145 40 145 81 c 27
 145 128 193 194 193 194 c 1
 163 178 108 158 108 158 c 1
 89 110 29.729020703 20.5752734078 19 6 c 1
EndSplineSet
EndChar

StartChar: y
Encoding: 121 121 19
Width: 279
VWidth: 0
Flags: HW
LayerCount: 2
Back
Fore
SplineSet
87 -8 m 5
 78 80 25 283 10 329 c 1
 43 350 l 1
 66 329 l 1
 77 293 120 117 132 52 c 5
 165 117 199 187 199 281 c 3
 199 297 188 314 188 314 c 1
 223 354 l 1
 223 354 254 334 254 314 c 3
 254 202 204 112 149 2 c 8
 102 -79 56 -163 29 -207 c 1
 16 -213 l 1
 8 -193 l 5
 87 -8 l 5
EndSplineSet
EndChar

StartChar: c
Encoding: 99 99 20
Width: 251
VWidth: 0
Flags: HW
LayerCount: 2
Back
Fore
SplineSet
142 309 m 3
 92.1279734764 309 67.6133412353 244.3874088 67.6133412353 178.971352381 c 3
 67.6133412353 111.907897562 93.3782440827 44 144 44 c 3
 188 44 215 88 215 88 c 1
 231 74 l 1
 231 74 185 -14 126 -14 c 3
 60 -14 10 70 10 146 c 3
 10 223 85 348 150 348 c 3
 184 348 242 312 242 312 c 1
 204 268 l 1
 200 277 182 309 142 309 c 3
EndSplineSet
EndChar

StartChar: j
Encoding: 106 106 21
Width: 134
VWidth: 0
Flags: HW
LayerCount: 2
Back
Fore
SplineSet
95 77 m 7
 95 156 93 329 93 329 c 5
 67 346 l 5
 33 322 l 5
 33 322 41 163 41 77 c 7
 41 -24 26 -134 20 -190 c 5
 33 -207 l 5
 44 -197 l 5
 60 -139 95 -33 95 77 c 7
63 471 m 3
 82 471 104 453 104 434 c 3
 104 417 85 403 68 403 c 3
 51 403 30 417 30 434 c 3
 30 448 49 471 63 471 c 3
EndSplineSet
EndChar

StartChar: t
Encoding: 116 116 22
Width: 203
VWidth: 0
Flags: W
HStem: -12 55<95 145.273> 296 44<19 59 117 168>
VStem: 50 60<43.283 293.505> 59 57<340 392>
LayerCount: 2
Back
Fore
SplineSet
58 296 m 1xd0
 19 296 l 1
 19 296 -4 307 -9 309 c 1
 5 336 l 1
 59 340 l 1
 59 392 l 1
 116 481 l 2
 116 477 115 472 115 467 c 0
 115 428 116 379 116 340 c 1xd0
 176 342 l 1
 196 326 l 1
 168 301 l 1
 117 296 l 1
 117 296 110 137 110 96 c 3
 110 76 110 43 118 43 c 3
 127 43 133 45 137 52 c 1
 165 21 l 1
 150 7 136 -12 110 -12 c 3
 80 -12 50 35 50 65 c 3xe0
 50 100 58 296 59 296 c 1
 58 296 l 1xd0
EndSplineSet
EndChar

StartChar: w
Encoding: 119 119 23
Width: 425
VWidth: 0
Flags: HW
LayerCount: 2
Back
Fore
SplineSet
110 -10 m 1
 80 14 l 1
 71.306640625 102.37890625 30.58984375 283.104492188 16 329 c 1
 49 350 l 1
 72 329 l 1
 83.3388671875 292.77734375 115.07421875 139.928710938 127 75 c 1
 159.92880616 139.539954777 185.772460938 282.010742188 185.772460938 282.010742188 c 1
 182.319335938 294.543945312 176.783203125 318.244140625 172.926757812 325.315429688 c 0
 171.658203125 327.641601562 170.772460938 329.010742188 170.772460938 329.010742188 c 2
 204.772460938 350.010742188 l 1
 227.772460938 329.010742188 l 1
 239.111328125 292.788085938 296.07421875 136.928710938 308 72 c 1
 341.092773438 136.861328125 340 186.71484375 340 281 c 0
 340 297 329 314 329 314 c 1
 364 354 l 1
 364 354 395 334 395 314 c 0
 395 201.875 368.004882812 99.8037109375 330 12 c 1
 291 -10 l 1
 261 14 l 1
 256.357744941 61.1943476531 230.645507812 134.732421875 215 200 c 1
 194.065429688 131.549804688 172.457677897 66.1949090978 149 12 c 1
 110 -10 l 1
EndSplineSet
EndChar

StartChar: k
Encoding: 107 107 24
Width: 302
VWidth: 0
Flags: W
HStem: -14 21G<220 280.455> 342 20G<203.5 228>
VStem: 27 57<13 125.727 370.284 587.541> 44 44.7797<125.727 147.702 182.729 534.131> 197 60<250.299 335.947> 215 69<10 59.1975>
LayerCount: 2
Back
Fore
SplineSet
90.0226413927 182.728984704 m 1xd0
 135.837384325 204.68407867 197 237.898801806 197 289 c 0
 197 305 186 322 186 322 c 1
 221 362 l 1
 235 353 257 331 257 301 c 0xd8
 257 266 225 232 176 197 c 1
 218 136 271 59 284 8 c 1
 245 -14 l 1
 215 10 l 1
 210 57 164 120 130 169 c 1
 132.139534884 172.209302326 l 1
 88.7797337913 147.701588664 l 1xd4
 84 13 l 1
 58 -13 l 1
 27 10 l 1xe0
 27 10 44 262 44 329 c 0
 44 410 30 583 30 583 c 1
 64 607 l 1
 81 591 l 1
 81 591 95 412 95 323 c 2
 90.0226413927 182.728984704 l 1xd0
EndSplineSet
EndChar

StartChar: g
Encoding: 103 103 25
Width: 246
VWidth: 0
Flags: HW
LayerCount: 2
Back
Fore
SplineSet
112.799804688 309.479492188 m 0
 68.21875 309.479492188 57.6005859375 270.719726562 57.6005859375 220.399414062 c 0
 57.6005859375 168.719726562 81.6005859375 134.040039062 112.799804688 134.040039062 c 0
 163.200195312 134.040039062 172.799804688 174.159179688 172.799804688 221.079101562 c 0
 172.799804688 266.639648438 156.799804688 309.479492188 112.799804688 309.479492188 c 0
8 200 m 0
 8 258.69921875 52 341.439453125 125.600585938 341.439453125 c 0
 149.911132812 341.439453125 176 338 182 329 c 1
 240 395 l 1
 262 375 l 1
 206 309 l 1
 216.08203125 293.1796875 226.400390625 261.544921875 226.400390625 237.399414062 c 0
 226.400390625 163.279296875 162.400390625 98.6796875 98.400390625 98.6796875 c 0
 82.2197265625 98.6796875 67.998046875 102.969726562 55.9111328125 110.178710938 c 1
 55.896484375 109.530273438 55.888671875 108.876953125 55.888671875 108.21875 c 0
 55.888671875 97.6181640625 57.8505859375 85.8505859375 64 75 c 0
 76.47265625 52.990234375 101 51 137 51 c 0
 213.439822507 51 257.702148438 19.796875 257.702148438 -21.03125 c 0
 257.702148438 -176 139.955415617 -210 68 -210 c 0
 13 -210 -26 -161 -26 -106 c 0
 -26 -49 2 -8 33 24 c 1
 33 24 0 49.494140625 0 66 c 1
 34.7294921875 127.975585938 l 1
 17.310546875 147.86328125 8 174.993164062 8 200 c 0
50 9 m 1
 30 -22 20 -56.298828125 20 -92 c 0
 20 -125 55 -142 88 -142 c 0
 132.989710662 -142 230 -130 230 -50.544921875 c 0
 230 -27.9150390625 186.58171335 -10 108 -10 c 0
 91.8759765625 -10 66.166015625 -1.0419921875 50 9 c 1
EndSplineSet
EndChar

StartChar: z
Encoding: 122 122 26
Width: 305
VWidth: 0
Flags: HW
LayerCount: 2
Back
Fore
SplineSet
79 55 m 1
 94 56 102 58 118 58 c 0
 154 58 181 41 222 41 c 0
 268 41 259 41 286 67 c 1
 304 49 l 1
 274 9 264 -12 215 -12 c 0
 166 -12 160 14 108 14 c 0
 89 14 63 6 60 4 c 2
 30 -20 l 1
 -9 2 l 1
 4 53 71 156 113 217 c 0
 136 251 151 272 160 296 c 1
 156 296 152 296 148 296 c 0
 106 296 120 308 79 308 c 0
 57 308 47 306 9 286 c 1
 -10 304 l 1
 25 332 53 357 75 357 c 0
 113 357 110 346 152 346 c 0
 176 346 181 352 208 360 c 1
 239 333 l 1
 211 286 189 230 145 169 c 0
 121 135 99 95 79 55 c 1
EndSplineSet
EndChar

StartChar: x
Encoding: 120 120 27
Width: 271
VWidth: 0
Flags: HW
LayerCount: 2
Back
Fore
SplineSet
198 281 m 7
 198 297 187 314 187 314 c 5
 222 354 l 5
 236 345 258 323 258 293 c 7
 258 258 202 232 153 197 c 1
 195 136 248 53 261 2 c 1
 222 -20 l 1
 192 4 l 1
 187 51 141 120 107 169 c 1
 72 141 61 91 61 48 c 3
 61 32 72 15 72 15 c 1
 37 -25 l 1
 24 -17 3 4 3 33 c 3
 3 89 41 149 94 188 c 1
 52 247 28 281 15 332 c 5
 54 354 l 5
 84 330 l 5
 88 287 106 266 139 217 c 1
 167 242 198 258 198 281 c 7
EndSplineSet
EndChar

StartChar: S
Encoding: 83 83 28
Width: 299
VWidth: 0
Flags: HW
LayerCount: 2
Back
Fore
SplineSet
0 124 m 1
 23 145 l 1
 23 145 87 51 155 51 c 3
 197 51 241 81 241 105 c 3
 241 209 23 238 23 362 c 3
 23 427 104 472 153 472 c 3
 220 472 269 427 269 427 c 1
 255 382 l 1
 227 387 l 1
 227 387 211 444 159 444 c 3
 110 444 75 417 75 391 c 3
 75 304 289 240 289 144 c 3
 289 91 222 -7 144 -7 c 3
 75 -7 0 124 0 124 c 1
EndSplineSet
EndChar

StartChar: I
Encoding: 73 73 29
Width: 150
VWidth: 0
Flags: HW
VStem: 41 60<9.04235 168.875 241.938 460.649> 55 60<5.09302 227.062 237.5 459.958>
LayerCount: 2
Back
Fore
SplineSet
109 315 m 3x80
 101 148 l 0
 101 67 115 9 115 9 c 1x40
 72 -15 l 1
 55 1 l 1
 55 1 41 65 41 154 c 3x80
 49 321 l 0
 49 402 35 460 35 460 c 1
 78 484 l 1
 95 468 l 1
 95 468 109 404 109 315 c 3x80
EndSplineSet
EndChar

StartChar: D
Encoding: 68 68 30
Width: 438
VWidth: 0
Flags: HMW
LayerCount: 2
Back
SplineSet
226 428 m 3
 151 428 120 331 120 231 c 3
 120 98 172 45 224 45 c 3
 309 45 337 140 337 233 c 3
 337 360 310 428 226 428 c 3
61 191 m 3
 61 308 124 472 248 472 c 3
 308.208007812 472 408 402 408 265 c 3
 408 118 310 -11 202 -11 c 3
 122 -11 61 98 61 191 c 3
EndSplineSet
Fore
SplineSet
152 322 m 6
 144 148 l 2
 144 89.8125 146.224609375 48.494140625 150.293945312 27.01953125 c 1
 250.948242188 27.2548828125 340 71.4609375 340 223 c 0
 340 380 307 442 184 442 c 4
 173.306640625 442 142.091796875 436.481445312 142.091796875 436.481445312 c 5
 142.091796875 436.481445312 152 379.165039062 152 322 c 6
83.95703125 424.591796875 m 5
 81.6376953125 423.989257812 l 6
 63.607421875 417.616210938 52 412 52 412 c 5
 30 436 l 5
 30 436 121.78515625 479.681640625 237.502929688 479.681640625 c 4
 302.586914062 479.681640625 406 417.358398438 406 259 c 0
 406 115 332 -12 156 -12 c 0
 73 -12 30 12 30 12 c 1
 30 28 l 1
 52 44 l 1
 54.4990234375 39.001953125 66.0869140625 35.8642578125 86.15625 33.6630859375 c 1
 84.1103515625 60.58203125 84 100.228515625 84 154 c 2
 92 328 l 6
 92 372.537109375 87.767578125 404.678710938 83.95703125 424.591796875 c 5
EndSplineSet
EndChar

StartChar: O
Encoding: 79 79 31
Width: 407
VWidth: 0
Flags: HW
LayerCount: 2
Back
Fore
SplineSet
195 428 m 3
 120 428 89 331 89 231 c 3
 89 98 141 45 193 45 c 3
 278 45 306 140 306 233 c 3
 306 360 279 428 195 428 c 3
30 191 m 3
 30 308 93 472 217 472 c 3
 277.208007812 472 377 402 377 265 c 3
 377 118 279 -11 171 -11 c 3
 91 -11 30 98 30 191 c 3
EndSplineSet
EndChar

StartChar: A
Encoding: 65 65 32
Width: 357
VWidth: 0
Flags: HW
LayerCount: 2
Back
Fore
SplineSet
209 480 m 1
 239 456 l 1
 248 368 324 49 339 3 c 1
 306 -18 l 1
 283 3 l 1
 278 18 264 78 248 147 c 1
 215 152 175 155 139 155 c 0
 122 155 106 155 92 153 c 1
 81 116 73 80 73 53 c 0
 73 37 84 20 84 20 c 1
 49 -20 l 1
 49 -20 18 0 18 20 c 0
 18 132 132 370 170 458 c 1
 209 480 l 1
239 187 m 1
 220 273 200 363 194 396 c 1
 174 357 135 277 107 198 c 1
 112 198 116 198 122 198 c 0
 162 198 202 194 239 187 c 1
EndSplineSet
EndChar

StartChar: V
Encoding: 86 86 33
Width: 347
VWidth: 0
Flags: HW
LayerCount: 2
Back
Fore
SplineSet
148 -20 m 29
 118 4 l 5
 109.306640625 92.37890625 32.58984375 411.104492188 18 457 c 5
 51 478 l 5
 74 457 l 5
 85.3388671875 420.77734375 151.07421875 128.928710938 163 64 c 5
 196.092773438 128.861328125 284 312.71484375 284 407 c 7
 284 423 273 440 273 440 c 5
 308 480 l 5
 308 480 339 460 339 440 c 7
 339 327.875 225.004882812 89.8037109375 187 2 c 5
 148 -20 l 29
EndSplineSet
EndChar

StartChar: N
Encoding: 78 78 34
Width: 405
VWidth: 0
Flags: HW
LayerCount: 2
Back
SplineSet
182 475 m 5
 202 459 l 5
 174 434 l 5
 129 440 l 5
 129 260 l 5
 162 250 233 241 292 241 c 7
 331 241 366 245 381 254 c 5
 381 427 l 5
 342 427 l 5
 314 440 l 5
 328 467 l 5
 394 471 507 475 507 475 c 5
 527 459 l 5
 499 434 l 5
 438 440 l 5
 438 39 l 5
 477 39 l 5
 505 26 l 5
 491 -1 l 5
 425 -5 321 -6 321 -6 c 5
 301 10 l 5
 329 35 l 5
 381 26 l 5
 381 206 l 5
 361 200 336 198 309 198 c 7
 249 198 178 209 129 222 c 5
 129 39 l 5
 168 39 l 5
 196 26 l 5
 182 -1 l 5
 116 -5 0 -6 0 -6 c 5
 -20 10 l 5
 8 35 l 5
 72 26 l 5
 72 427 l 5
 33 427 l 5
 5 440 l 5
 19 467 l 5
 85 471 182 475 182 475 c 5
EndSplineSet
Fore
SplineSet
368 -2 m 27
 368 -19 329 -24 329 -24 c 1
 299 0 l 1
 294 47 195 195 161 244 c 0
 141.766849215 271.017997532 116.662046221 306.214367782 93.8480754105 341.330597132 c 1
 96.6344350797 296.996201326 99 262 99 212 c 27
 99 130 88 3 88 3 c 1
 62 -23 l 1
 31 0 l 1
 31 0 48 151 48 218 c 3
 48 313.670053246 37.5650354818 456.715172087 35 462 c 1
 57 494 l 1
 75.0053706137 481.320153587 90.6105508467 466.264850823 105 450 c 1
 109 407 187 302 220 253 c 0
 242.202785227 220.753097646 284.874670806 163.618749789 312.291130976 108.994246031 c 1
 315.867098757 147.39091915 319 189.237694523 319 218 c 3
 319 299 305 470 305 470 c 1
 339 494 l 1
 356 478 l 1
 356 478 370 301 370 212 c 3
 370 142.170725402 368 81 368 -2 c 27
EndSplineSet
EndChar

StartChar: Z
Encoding: 90 90 35
Width: 400
VWidth: 0
Flags: HW
LayerCount: 2
Back
SplineSet
288.5 467 m 5
 279 387.71875 119 89 110 38 c 1
 136.87109375 27.36328125 170.688476562 17.5107421875 201.224609375 17.5107421875 c 3
 237.234375 17.5107421875 257.172851562 39.5 270 54 c 1
 322 43 l 1
 322 5.8701171875 288.03515625 -26.162109375 237.3671875 -26.162109375 c 3
 166.861328125 -26.162109375 90.892578125 7.85546875 41 36 c 1
 53 108 209 390 219.5 465 c 5
 206.638671875 466.587890625 196.326171875 467.663085938 187.418945312 467.663085938 c 7
 143 467.663085938 114.3125 439 114.3125 408.891601562 c 5
 61.240234375 406 l 5
 60.3076171875 410.139648438 59.662109375 415.423828125 59.662109375 421.331054688 c 7
 59.662109375 474.259765625 111.006835938 498.71875 162.297851562 498.71875 c 7
 212.2578125 498.71875 255.958984375 485.356445312 288.5 467 c 5
EndSplineSet
Fore
SplineSet
110 58 m 5
 125 59 144 61 160 61 c 7
 196 61 243 44 284 44 c 7
 330 44 341 44 368 70 c 5
 386 52 l 5
 354 12 326 -9 277 -9 c 7
 228 -9 202 17 150 17 c 7
 115 17 78 -1 35 -15 c 5
 10 9 l 5
 117 153 186 280 266 410 c 5
 259.5 409 253 408.75 246.625 408.75 c 7
 204.880434875 408.75 192.425269421 421 151 421 c 7
 129 421 96 419 58 399 c 5
 39 417 l 5
 76 443 125 470 147 470 c 7
 185 470 208 459 250 459 c 7
 274 459 279 465 306 473 c 5
 337 446 l 5
 110 58 l 5
EndSplineSet
EndChar

StartChar: H
Encoding: 72 72 36
Width: 420
VWidth: 0
Flags: HW
LayerCount: 2
Back
Fore
SplineSet
374 315 m 1
 366 148 l 2
 366 67 380 9 380 9 c 1
 336 -15 l 1
 320 1 l 1
 320 1 306 65 306 154 c 1
 307 195 l 1
 291 187 274 182 252 182 c 0
 203 182 206 208 154 208 c 0
 136 208 123 205 108 200 c 1
 106 148 l 2
 106 67 120 9 120 9 c 1
 76 -15 l 1
 60 1 l 1
 60 1 46 65 46 154 c 1
 54 321 l 2
 54 402 40 460 40 460 c 1
 82 484 l 1
 100 468 l 1
 100 468 114 404 114 315 c 1
 110 247 l 1
 114 249 l 1
 129 250 148 252 164 252 c 0
 200 252 217 235 258 235 c 0
 282 235 298 239 310 239 c 1
 314 321 l 2
 314 402 300 460 300 460 c 1
 342 484 l 1
 360 468 l 1
 360 468 374 404 374 315 c 1
EndSplineSet
EndChar

StartChar: U
Encoding: 85 85 37
Width: 389
VWidth: 0
Flags: HW
LayerCount: 2
Back
Fore
SplineSet
359 200 m 3
 359 287 345 477 345 478 c 2
 328 494 l 1
 294 470 l 1
 294 468 308 301 308 216 c 3
 308 127 270 39 192 39 c 3
 144 39 88 89 88 200 c 3
 88 285 89 467 89 467 c 1
 46 494 l 1
 30 460 l 1
 32 455 35 291 35 200 c 3
 35 107 90 -17 170 -17 c 3
 262 -17 359 80 359 200 c 3
EndSplineSet
EndChar

StartChar: J
Encoding: 74 74 38
Width: 159
VWidth: 0
Flags: HW
LayerCount: 2
Back
Fore
SplineSet
13 -199 m 1
 0 -205 l 1
 -18 -185 l 5
 42 -45 49 108 59 321 c 5
 59 402 45 474 45 474 c 5
 98 498 l 1
 120 477 129 426 129 315 c 1
 117 71 93 -68 13 -199 c 1
EndSplineSet
EndChar

StartChar: L
Encoding: 76 76 39
Width: 352
VWidth: 0
Flags: HW
LayerCount: 2
Back
Fore
SplineSet
109 315 m 1
 101 148 l 2
 101 97.4134570132 106.460444542 55.7976443452 110.560962945 31.6780253459 c 1
 132.09086968 42.5560291674 157.706842764 52 183 52 c 0
 219 52 242 35 283 35 c 0
 329 35 318 35 345 61 c 1
 363 43 l 1
 331 3 325 -18 276 -18 c 0
 227 -18 225 8 173 8 c 0
 138 8 126 -10 83 -24 c 1
 73.0275735294 -14.4264705882 l 1
 72 -15 l 1
 55 1 l 1
 55 1 41 65 41 154 c 1
 49 321 l 2
 49 402 35 460 35 460 c 1
 78 484 l 1
 95 468 l 1
 95 468 109 404 109 315 c 1
EndSplineSet
EndChar

StartChar: T
Encoding: 84 84 40
Width: 342
VWidth: 0
Flags: HW
LayerCount: 2
Back
Fore
SplineSet
210 315 m 2
 202 148 l 2
 202 67 216 9 216 9 c 1
 174 -15 l 1
 156 1 l 1
 156 1 142 65 142 154 c 1
 150 321 l 2
 150 371 145 412 141 436 c 1
 131 437 121 438 112 438 c 0
 90 438 56 436 18 416 c 1
 0 434 l 1
 37 460 86 487 108 487 c 0
 156 487 212 476 256 476 c 0
 280 476 285 482 312 490 c 1
 342 463 l 1
 316 450 289 426 252 426 c 0
 237 426 220 427 203 429 c 1
 207 402 210 362 210 315 c 2
EndSplineSet
EndChar

StartChar: X
Encoding: 88 88 41
Width: 352
VWidth: 0
Flags: HW
LayerCount: 2
Back
SplineSet
206 476 m 25
 236 452 l 1
 244.693359375 363.62109375 321.41015625 44.8955078125 336 -1 c 1
 303 -22 l 1
 280 -1 l 1
 268.661132812 35.22265625 202.92578125 327.071289062 191 392 c 1
 157.907226562 327.138671875 70 143.28515625 70 49 c 3
 70 33 81 16 81 16 c 1
 46 -24 l 1
 46 -24 15 -4 15 16 c 3
 15 128.125 128.995117188 366.196289062 167 454 c 1
 206 476 l 25
EndSplineSet
Fore
SplineSet
280 403 m 3
 280 419 269 436 269 436 c 1
 304 476 l 1
 318 467 340 445 340 415 c 3
 340 380 243 288 194 253 c 1
 236 192 329 58 342 7 c 1
 303 -15 l 1
 273 9 l 1
 268 56 185 169 151 218 c 1
 116 190 71 91 71 48 c 3
 71 32 82 15 82 15 c 1
 47 -25 l 1
 34 -17 13 4 13 33 c 3
 13 89 82 205 135 244 c 1
 93 303 23 401 10 452 c 1
 49 474 l 1
 79 450 l 1
 83 407 143 329 176 280 c 1
 204 305 280 380 280 403 c 3
EndSplineSet
EndChar

StartChar: W
Encoding: 87 87 42
Width: 512
VWidth: 0
Flags: HW
LayerCount: 2
Back
Fore
SplineSet
144 -20 m 1
 114 4 l 1
 105 92 29 411 14 457 c 1
 47 478 l 1
 70 457 l 1
 81 421 147 129 159 64 c 1
 192 129 233 313 233 407 c 1
 233 423 222 440 222 440 c 1
 257 480 l 1
 266 474 276 465 285 457 c 1
 296 421 362 129 374 64 c 1
 407 129 442 313 442 407 c 0
 442 423 431 440 431 440 c 1
 466 480 l 1
 466 480 497 460 497 440 c 0
 497 328 436 90 398 2 c 1
 359 -20 l 1
 329 4 l 1
 324 60 291 206 264 319 c 1
 228 204 210 65 183 2 c 1
 144 -20 l 1
EndSplineSet
EndChar

StartChar: Y
Encoding: 89 89 43
Width: 331
VWidth: 0
Flags: HW
LayerCount: 2
Back
Fore
SplineSet
207 28 m 0
 141 -60 64 -110 14 -127 c 1
 -5 -118 l 1
 -1 -95 l 1
 47 -85 104 -26 153 37 c 0
 189 84 203 123 203 123 c 1
 169 171 20 411 5 457 c 1
 38 478 l 1
 61 457 l 1
 72 421 195 225 229 187 c 1
 249 230 271 347 271 407 c 0
 271 423 260 440 260 440 c 1
 295 480 l 1
 295 480 326 460 326 440 c 0
 326 305 281 127 207 28 c 0
EndSplineSet
EndChar

StartChar: M
Encoding: 77 77 44
Width: 512
VWidth: 0
Flags: HW
LayerCount: 2
Back
Fore
SplineSet
367 480 m 5
 397 456 l 5
 406 368 482 49 497 3 c 5
 464 -18 l 5
 441 3 l 5
 430 39 364 331 352 396 c 5
 319 331 278 147 278 53 c 5
 278 37 289 20 289 20 c 5
 254 -20 l 5
 245 -14 235 -5 226 3 c 5
 215 39 149 331 137 396 c 5
 104 331 69 147 69 53 c 4
 69 37 80 20 80 20 c 5
 45 -20 l 5
 45 -20 14 0 14 20 c 4
 14 132 75 370 113 458 c 5
 152 480 l 5
 182 456 l 5
 187 400 220 254 247 141 c 5
 283 256 301 395 328 458 c 5
 367 480 l 5
EndSplineSet
EndChar

StartChar: E
Encoding: 69 69 45
Width: 368
VWidth: 0
Flags: HMW
LayerCount: 2
Back
Fore
SplineSet
100.828803152 421.891167808 m 1
 104.672010342 400.057584055 109 364.484489693 109 315 c 2
 105.62782261 244.605796994 l 1
 248 249 l 1
 265 230 l 1
 243 200 l 1
 103.830727086 207.091427919 l 1
 101 148 l 2
 101 97.4134570132 108.459960938 61.7978515625 112.560546875 37.677734375 c 1
 134.090820312 48.5556640625 157.70703125 49 183 49 c 0
 219 49 242 38 283 38 c 0
 329 38 321 38 345 61 c 1
 363 43 l 1
 331 3 325 -15 276 -15 c 0
 227 -15 225 5 173 5 c 0
 138 5 126 -10 83 -24 c 1
 72.2239495967 -16.4304694388 64.2337565786 -7.69059442693 55 1 c 1
 55 1 41 65 41 154 c 1
 49 321 l 2
 49 402 35 440 35 440 c 1
 78 464 l 1
 294 474 l 1
 313 455 l 1
 289 420 l 1
 100.828803152 421.891167808 l 1
EndSplineSet
EndChar

StartChar: C
Encoding: 67 67 46
Width: 322
VWidth: 0
Flags: HW
LayerCount: 2
Back
SplineSet
184 428 m 7
 109 428 78 331 78 231 c 7
 78 98 130 45 182 45 c 7
 267 45 295 140 295 233 c 7
 295 360 268 428 184 428 c 7
19 191 m 7
 19 308 82 472 206 472 c 7
 266.208007812 472 366 402 366 265 c 7
 366 118 268 -11 160 -11 c 7
 80 -11 19 98 19 191 c 7
EndSplineSet
Fore
SplineSet
194 434 m 7
 125 434 77 336 77 246 c 7
 77 113 113 44 185 44 c 7
 245 44 285 121 285 121 c 5
 307 102 l 5
 307 102 243 -19 162 -19 c 7
 107 -19 20 60.296875 20 200 c 7
 20 329 106 478 195 478 c 7
 278 478 300 429 300 429 c 5
 248 368 l 5
 242 380 230 434 194 434 c 7
EndSplineSet
EndChar

StartChar: G
Encoding: 71 71 47
Width: 322
VWidth: 0
Flags: HW
LayerCount: 2
Back
Fore
SplineSet
194 434 m 0
 125 434 77 336 77 246 c 0
 77 113 113 44 185 44 c 0
 218.928702012 44 246.462088356 68.621965321 263.983746376 90.0195184828 c 1
 252.12890625 177.2578125 l 1
 251 177 l 1
 212 177 l 1
 184 190 l 1
 198 217 l 1
 296 231 l 1
 307 102 l 1
 307 102 243 -19 162 -19 c 0
 107 -19 20 60.296875 20 200 c 0
 20 329 106 478 195 478 c 0
 246 478 280 429 280 429 c 1
 284 378 l 1
 248 368 l 1
 242 380 230 434 194 434 c 0
EndSplineSet
EndChar

StartChar: Q
Encoding: 81 81 48
Width: 401
VWidth: 0
Flags: HW
LayerCount: 2
Back
Fore
SplineSet
189 428 m 0
 114 428 83 331 83 231 c 0
 83 98 135 45 187 45 c 0
 272 45 300 140 300 233 c 0
 300 360 273 428 189 428 c 0
24 191 m 0
 24 308 87 472 211 472 c 0
 271.208007812 472 371 402 371 265 c 0
 371 118 273 -11 165 -11 c 0
 158.81880068 -11 152.751029059 -10.3492831986 146.816058169 -9.10550742637 c 2
 150 -12 l 1
 144.29881475 -18.7192540447 l 1
 192.105422574 -22.8492910445 242.715496595 -50.1209697802 280.392578125 -89.439453125 c 1
 281.254882812 -88.3173828125 l 1
 309.666992188 -112.848632812 329.541992188 -141.518554688 352.34765625 -138.543945312 c 0
 368.213867188 -136.474609375 383.6484375 -123.368164062 383.6484375 -123.368164062 c 1
 427.838867188 -152.900390625 l 1
 420.725585938 -167.947265625 401.755859375 -192.607421875 372.008789062 -196.48828125 c 0
 337.301757812 -201.014648438 304.276367188 -148.84765625 263.233398438 -104.787109375 c 0
 230.94140625 -73.703125 179.938476562 -69.2626953125 137.299804688 -74.8232421875 c 0
 121.434570312 -76.8935546875 106 -90 106 -90 c 1
 61.80859375 -60.4677734375 l 1
 66.972062773 -48.9639097072 80.2254086962 -30.9013886729 100.888332836 -22.8512074621 c 1
 121.181874632 0.241443546618 l 1
 63.761613125 30.4018158286 24 115.915545701 24 191 c 0
EndSplineSet
EndChar

StartChar: F
Encoding: 70 70 49
Width: 318
VWidth: 0
Flags: HW
VStem: 41 60<9.04235 168.875 241.938 460.649> 55 60<5.09302 227.062 237.5 459.958>
LayerCount: 2
Back
Fore
SplineSet
41 154 m 27
 41 219 49 321 49 321 c 2
 49 402 35 440 35 440 c 1
 78 464 l 1
 294 474 l 1
 313 455 l 1
 289 420 l 1
 100.828803152 421.891167808 l 1
 104.672010342 400.057584055 109 364.484489693 109 315 c 2
 105.62782261 244.605796994 l 1
 248 249 l 1
 265 230 l 1
 243 200 l 1
 103.830727086 207.091427919 l 1
 101 148 l 3
 101 107.295208111 114.181640625 9 114.181640625 9 c 1x40
 71.181640625 -15 l 1
 54.181640625 1 l 1
 54.181640625 1 41 94 41 154 c 27
EndSplineSet
EndChar

StartChar: P
Encoding: 80 80 50
Width: 376
VWidth: 0
Flags: HW
LayerCount: 2
Back
Fore
SplineSet
17 410 m 5
 -5 434 l 5
 -5 434 86.78515625 477.681640625 202.502929688 477.681640625 c 4
 267.586914062 477.681640625 371 463.358398438 371 356 c 0
 371 268 297 179 121 179 c 0
 120.739218284 179 120.478831442 179.000709284 120.218839566 179.000709284 c 0
 118.962013583 160.265673191 118 148 118 148 c 0
 118 107.294921875 131.181640625 9 131.181640625 9 c 1
 88.181640625 -15 l 1
 71.181640625 1 l 1
 71.181640625 1 58 94 58 154 c 0
 58 163.360637419 58.1659105948 173.48861134 58.4499462792 183.968785184 c 1
 16.5036249011 190.997976799 9 198 9 198 c 1
 9 214 l 1
 31 230 l 1
 34.2919921875 223.416015625 39.1103459966 224.737286618 59.8968732196 222.429939248 c 1
 62.2626341049 273.348584837 66 326 66 326 c 6
 66 370.422851562 61.7890625 401.913085938 57.986328125 421.293945312 c 5
 43.2802734375 416.576171875 29.5712890625 412.22265625 17 410 c 5
112.598632812 433.151367188 m 5
 112.598632812 433.151367188 122 367.040039062 122 320 c 4
 122 290.938476562 124.400770225 249.479790045 122.632360939 218.048590178 c 1
 220.23653225 218.61049722 305 226.789661536 305 320 c 0
 305 426 257 440 161 440 c 4
 148.135742188 440 112.598632812 433.151367188 112.598632812 433.151367188 c 5
EndSplineSet
EndChar

StartChar: R
Encoding: 82 82 51
Width: 381
VWidth: 0
Flags: HW
LayerCount: 2
Back
Fore
SplineSet
112.598632812 433.151367188 m 1
 112.598632812 433.151367188 122 379.040039062 122 332 c 0
 122 302.938476562 124.400390625 270.479492188 122.6328125 239.048828125 c 1
 220.236328125 239.610351562 286 278.790039062 286 339 c 0
 286 404 256 440 161 440 c 0
 148.135742188 440 112.598632812 433.151367188 112.598632812 433.151367188 c 1
66 338 m 0
 66 382.422851562 61.7890625 401.913085938 57.986328125 421.293945312 c 1
 43.2802734375 416.576171875 29.5712890625 412.22265625 17 410 c 1
 -5 434 l 1
 -5 434 86.78515625 477.681640625 202.502929688 477.681640625 c 0
 267.586914062 477.681640625 344 451.358398438 344 368 c 0
 344 328.844695143 320.179345049 260.293688431 242.951261245 224.046227877 c 1
 289.138164029 156.862985112 359.793499109 51.9639650345 371 8 c 1
 332 -14 l 1
 302 10 l 1
 296.947053243 57.4978830261 231.317564327 143.69988839 188.604639805 206.386127206 c 1
 168.529963719 202.293530623 146.07412102 200 121 200 c 0
 120.739257812 200 120.478515625 200.000976562 120.21875 200.000976562 c 0
 118.961914062 181.265625 118 148 118 148 c 2
 118 107.294921875 131.181640625 9 131.181640625 9 c 1
 88.181640625 -15 l 1
 71.181640625 1 l 1
 71.181640625 1 58 94 58 154 c 0
 58 196.110351562 65.6123046875 323.7109375 66 338 c 0
EndSplineSet
EndChar

StartChar: K
Encoding: 75 75 52
Width: 350
VWidth: 0
Flags: HW
LayerCount: 2
Back
SplineSet
280 403 m 7
 280 419 269 436 269 436 c 5
 304 476 l 5
 318 467 340 445 340 415 c 7
 340 380 243 288 194 253 c 5
 236 192 329 49 342 -2 c 5
 303 -24 l 5
 273 0 l 5
 268 47 185 169 151 218 c 5
 116 190 71 91 71 48 c 7
 71 32 82 15 82 15 c 5
 47 -25 l 5
 34 -17 13 4 13 33 c 7
 13 89 82 205 135 244 c 5
 93 303 23 401 10 452 c 5
 49 474 l 5
 79 450 l 5
 83 407 143 329 176 280 c 5
 204 305 280 380 280 403 c 7
90.0226413927 182.728984704 m 1xd0
 135.837384325 204.68407867 197 237.898801806 197 289 c 0
 197 305 186 322 186 322 c 1
 221 362 l 1
 235 353 257 331 257 301 c 0xd8
 257 266 225 232 176 197 c 1
 218 136 271 59 284 8 c 1
 245 -14 l 1
 215 10 l 1
 210 57 164 120 130 169 c 1
 132.139534884 172.209302326 l 1
 88.7797337913 147.701588664 l 1xd4
 84 13 l 1
 58 -13 l 1
 27 10 l 1xe0
 27 10 44 262 44 329 c 0
 44 410 30 583 30 583 c 1
 64 607 l 1
 81 591 l 1
 81 591 95 412 95 323 c 2
 90.0226413927 182.728984704 l 1xd0
90.0226413927 182.728984704 m 1xd0
 135.837384325 204.68407867 197 237.898801806 197 289 c 0
 197 305 186 322 186 322 c 1
 221 362 l 1
 235 353 257 331 257 301 c 0xd8
 257 266 225 232 176 197 c 1
 218 136 271 59 284 8 c 1
 245 -14 l 1
 215 10 l 1
 210 57 164 120 130 169 c 1
 132.139534884 172.209302326 l 1
 88.7797337913 147.701588664 l 1xd4
 84 13 l 1
 58 -13 l 1
 27 10 l 1xe0
 27 10 44 262 44 329 c 0
 44 410 30 583 30 583 c 1
 64 607 l 1
 81 591 l 1
 81 591 95 412 95 323 c 2
 90.0226413927 182.728984704 l 1xd0
EndSplineSet
Fore
SplineSet
149.670047556 218.172710765 m 1
 103.054395192 190.885499624 l 1
 101 148 l 2
 101 67 115 9 115 9 c 1
 72 -15 l 1
 55 1 l 1
 55 1 41 65 41 154 c 1
 49 321 l 2
 49 402 35 460 35 460 c 1
 78 484 l 1
 95 468 l 1
 95 468 109 404 109 315 c 1
 104.996100097 231.418589535 l 1
 156.396993985 263.88231199 252 351.630419689 252 403 c 0
 252 419 241 436 241 436 c 1
 276 476 l 1
 290 467 312 445 312 415 c 0
 312 380 241 288 192 253 c 1
 234 192 327 59 340 8 c 5
 301 -14 l 5
 271 10 l 5
 265.622070312 60.552734375 191.624559364 154.947760668 149.670047556 218.172710765 c 1
EndSplineSet
EndChar

StartChar: comma
Encoding: 44 44 53
Width: 177
VWidth: 0
Flags: HW
LayerCount: 2
Back
SplineSet
79 -9 m 7
 98 -9 115 -27 115 -46 c 7
 115 -63 86 -82 69 -82 c 7
 52 -82 36 -68 36 -51 c 7
 36 -37 65 -9 79 -9 c 7
EndSplineSet
Fore
SplineSet
69.0695506827 -7.99989424873 m 1
 69.0463449163 -7.99989424873 69.0231613209 -8 69 -8 c 0
 52 -8 36 6 36 23 c 0
 36 37 65 65 79 65 c 0
 98 65 115 47 115 28 c 0
 115 -9.85739921015 94 -62 85.6953125 -80 c 1
 74.6953125 -90 l 1
 61.6953125 -73 l 1
 63.5370503797 -55.8126968688 66.2263721813 -33.5389567436 69.0695506827 -7.99989424873 c 1
EndSplineSet
EndChar

StartChar: B
Encoding: 66 66 54
Width: 381
VWidth: 0
Flags: HW
LayerCount: 2
Back
Fore
SplineSet
121 221 m 0
 120.739257812 221 120.478515625 221.000976562 120.21875 221.000976562 c 0
 118.961914062 202.265625 118 129 118 129 c 2
 118 102.713867188 123.497070312 52.41015625 127.391601562 20.0712890625 c 1
 213.938476562 22.220703125 308 40.6298828125 308 110.55078125 c 4
 308 194.983398438 258.984375 222.765625 197.534179688 222.765625 c 0
 173.745117188 222.765625 147.641601562 221 121 221 c 0
5 5 m 1
 5 21 l 1
 27 37 l 1
 29.4990234375 32.001953125 41.0869140625 28.8642578125 61.15625 26.6630859375 c 2
 65.66796875 26.1953125 l 1
 62.0556640625 58.2802734375 58 101.717773438 58 135 c 1
 58 175.5546875 65.0603451908 314.401313495 65.9282173643 335.962874254 c 0
 65.3584754978 375.167357963 61.4983171235 403.39488708 57.986328125 421.293945312 c 1
 43.2802734375 416.576171875 29.5712890625 412.22265625 17 410 c 1
 -5 434 l 1
 -5 434 36.5108785421 453.755517696 98.8954574494 466.695232011 c 0
 129.275528745 472.996620115 164.605797542 477.681640625 202.502929688 477.681640625 c 0
 267.586914062 477.681640625 344 451.358398438 344 368 c 0
 344 326.870004786 318.561523438 290.470703125 276.442382812 258.086914062 c 1
 325.8515625 249.2578125 371 199.55859375 371 136.55078125 c 1
 371 62.1875 308 -19 131 -19 c 0
 79.5400390625 -19 3.0419921875 5 5 5 c 1
112.844947016 431.691235808 m 0
 118.586521234 411.597815663 121.251903565 387.096463039 121.861112635 342.236202474 c 0
 121.951372709 338.802732672 121.999999977 335.383078705 122 332 c 0
 122 302.938476562 122.6328125 260.048828125 122.6328125 260.048828125 c 1
 220.236328125 260.610351562 286 278.790039062 286 339 c 0
 286 404 256 440 161 440 c 0
 148.135742188 440 112.598632812 433.151367188 112.598632812 433.151367188 c 1
 112.598632812 433.151367188 112.686390035 432.646264074 112.844947016 431.691235808 c 0
EndSplineSet
EndChar

StartChar: period
Encoding: 46 46 55
Width: 177
VWidth: 0
Flags: HW
LayerCount: 2
Back
Fore
SplineSet
74 65 m 3
 93 65 115 47 115 28 c 3
 115 11 91 -8 74 -8 c 3
 57 -8 36 6 36 23 c 3
 36 37 60 65 74 65 c 3
EndSplineSet
EndChar

StartChar: colon
Encoding: 58 58 56
Width: 177
VWidth: 0
Flags: HW
LayerCount: 2
Back
Fore
SplineSet
74 327 m 3
 93 327 115 309 115 290 c 3
 115 273 91 254 74 254 c 3
 57 254 36 268 36 285 c 3
 36 299 60 327 74 327 c 3
74 65 m 3
 93 65 115 47 115 28 c 3
 115 11 91 -8 74 -8 c 3
 57 -8 36 6 36 23 c 3
 36 37 60 65 74 65 c 3
EndSplineSet
EndChar

StartChar: semicolon
Encoding: 59 59 57
Width: 177
VWidth: 0
Flags: HW
LayerCount: 2
Back
Fore
SplineSet
69.0695506827 -7.99989424873 m 5
 69.0463449163 -7.99989424873 69.0231613209 -8 69 -8 c 4
 52 -8 36 6 36 23 c 4
 36 37 65 65 79 65 c 4
 98 65 115 47 115 28 c 4
 115 -9.85739921015 94 -62 85.6953125 -80 c 5
 74.6953125 -90 l 5
 61.6953125 -73 l 5
 63.5370503797 -55.8126968688 66.2263721813 -33.5389567436 69.0695506827 -7.99989424873 c 5
74 327 m 3
 93 327 115 309 115 290 c 3
 115 273 91 254 74 254 c 3
 57 254 36 268 36 285 c 3
 36 299 60 327 74 327 c 3
EndSplineSet
EndChar

StartChar: quotesingle
Encoding: 39 39 58
Width: 99
VWidth: 0
Flags: HW
LayerCount: 2
Back
Fore
SplineSet
10 431 m 0
 10 445 39 473 53 473 c 0
 72 473 89 455 89 436 c 0
 89 398.142578125 68 378 59.6953125 360 c 1
 48.6953125 350 l 1
 35.6953125 367 l 1
 35.6953125 410 10 400.373046875 10 431 c 0
EndSplineSet
EndChar

StartChar: quotedbl
Encoding: 34 34 59
Width: 209
VWidth: 0
Flags: HW
LayerCount: 2
Back
SplineSet
63 431 m 4
 63 445 92 473 106 473 c 4
 125 473 142 455 142 436 c 4
 142 398.142578125 121 378 112.6953125 360 c 5
 101.6953125 350 l 5
 88.6953125 367 l 5
 88.6953125 410 63 400.373046875 63 431 c 4
EndSplineSet
Fore
SplineSet
120 431 m 0
 120 445 149 473 163 473 c 0
 182 473 199 455 199 436 c 0
 199 398.142578125 178 378 169.6953125 360 c 1
 158.6953125 350 l 1
 145.6953125 367 l 1
 145.6953125 410 120 400.373046875 120 431 c 0
10 431 m 0
 10 445 39 473 53 473 c 0
 72 473 89 455 89 436 c 0
 89 398.142578125 68 378 59.6953125 360 c 1
 48.6953125 350 l 1
 35.6953125 367 l 1
 35.6953125 410 10 400.373046875 10 431 c 0
EndSplineSet
EndChar

StartChar: parenleft
Encoding: 40 40 60
Width: 202
VWidth: 0
Flags: HW
LayerCount: 2
Back
Fore
SplineSet
197 -129.223632812 m 1
 189.732421875 -130.396484375 187.389648438 -131 180 -131 c 3
 100 -131 50 85 50 178 c 3
 50 394.1953125 53 609 197 609.873046875 c 1
 202 567.9765625 l 1
 128.448242188 566.266601562 98 397.106445312 98 218 c 3
 98 85 150 -75 202 -75 c 1
 197 -129.223632812 l 1
EndSplineSet
EndChar

StartChar: hyphen
Encoding: 45 45 61
Width: 330
VWidth: 0
Flags: HW
HStem: 285 40<73 112> 298 39<169 247> 566 38<184.03 245.968>
VStem: 112 57<-184 285 337 555.574>
LayerCount: 2
Back
Fore
SplineSet
73 158 m 1xb0
 45 171 l 25x70
 59 198 l 1xb0
 124.748046875 202.251953125 186 212 255 212 c 1
 275 196 l 25
 247 171 l 1
 176 171 136.409179688 156.924804688 73 158 c 1xb0
EndSplineSet
EndChar

StartChar: parenright
Encoding: 41 41 62
Width: 227
VWidth: 0
Flags: HW
LayerCount: 2
Back
Fore
SplineSet
5 -75 m 1
 70 -75 125 70 125 193 c 3
 125 390.422851562 87 567.9765625 5 567.9765625 c 1
 0 609.873046875 l 1
 138 609.873046875 177 404.795676916 177 209 c 3
 177 72.0576171875 129 -129.223632812 0 -129.223632812 c 1
 5 -75 l 1
EndSplineSet
EndChar

StartChar: bracketleft
Encoding: 91 91 63
Width: 150
VWidth: 0
Flags: HW
VStem: 62 22<9 169 242 461> 68 22<5 227 238 460>
LayerCount: 2
Back
Fore
SplineSet
100.5 445 m 2
 94.5 18 l 2
 94.5 -35.276450492 99.0424465567 -78.6027799549 102.151896977 -102.019917233 c 1
 159.819495395 -99.4119879027 198 -92.5 198 -92.5 c 2
 222 -124.75 l 1
 206 -137.5 l 1
 206 -137.5 156 -148 67 -148 c 1
 57.7149410677 -112.637941992 l 1
 54.6260862148 -88.1657978867 49.5 -38.1853825324 49.5 24 c 2
 55.5 451 l 2
 55.5 532 47 598 47 598 c 1
 198 614.5 l 1
 222 582.25 l 1
 206 569.5 l 1
 206 569.5 161.345189344 562.173820127 94.7654418288 559.760623194 c 1
 97.5415883054 532.439376627 100.5 492.241606998 100.5 445 c 2
EndSplineSet
EndChar

StartChar: bracketright
Encoding: 93 93 64
Width: 150
VWidth: 0
Flags: HW
VStem: 50 45<9 169 242 461> 60 45<5 227 238 460>
LayerCount: 2
Back
Fore
SplineSet
100.5 455 m 2
 94.5 18 l 2
 94.5 -63 105 -121 105 -121 c 1
 96.8005649557 -128.550527365 89.0018439565 -136.50189777 80.75 -144 c 1
 80.75 -144 -85.356705157 -152.5 -55 -152.5 c 1
 -79 -125.25 l 1
 -63 -112.5 l 1
 -63 -112.5 -14.624327545 -104.563366238 56.4978103728 -102.49044094 c 1
 53.4441631666 -75.703618514 49.5 -30.5472415982 49.5 24 c 2
 55.5 461 l 2
 55.5 505.203693801 52.3729387701 542.557634431 49.5318448808 567.373440941 c 1
 -12.9554372118 565.111515677 -55 557.5 -55 557.5 c 2
 -79 584.75 l 1
 -63 597.5 l 1
 -63 597.5 1 608 90 608 c 1
 90 608 100.5 544 100.5 455 c 2
EndSplineSet
EndChar

StartChar: braceleft
Encoding: 123 123 65
Width: 300
VWidth: 0
Flags: HW
HStem: 285 40<131 170> 298 39<227 305> 566 38<242 304>
VStem: 170 57<-184 285 337 556>
LayerCount: 2
Back
Fore
SplineSet
45.025390625 237 m 5
 35 248 l 5
 63 273 l 5
 63 273 127 276 139 303 c 28
 209 470 135 475 254 604 c 5
 267 610 l 5
 285 590 l 5
 187 454 249 471 209 303 c 28
 205 287 176 248 176 248 c 5
 182 237 l 5
 190.86328125 224.337890625 205.108398438 202.865234375 207.825195312 192 c 12
 247.825195312 24 185.825195312 41 283.825195312 -95 c 5
 265.825195312 -115 l 5
 252.825195312 -109 l 5
 133.825195312 20 207.825195312 25 137.825195312 192 c 28
 125.825195312 219 61.8251953125 222 61.8251953125 222 c 5
 45.025390625 237 l 5
EndSplineSet
EndChar

StartChar: braceright
Encoding: 125 125 66
Width: 300
VWidth: 0
Flags: HW
HStem: 285 40<61 100> 298 39<157 235> 566 38<172.03 233.968>
VStem: 100 57<-184 285 337 555.574>
LayerCount: 2
Back
Fore
SplineSet
254.974609375 258 m 1
 265 247 l 1
 237 222 l 1
 237 222 173 219 161 192 c 24
 91 25 165 20 46 -109 c 1
 33 -115 l 1
 15 -95 l 1
 113 41 51 24 91 192 c 24
 95 208 124 247 124 247 c 1
 118 258 l 1
 109.13671875 270.662109375 94.8916015625 292.134765625 92.1748046875 303 c 8
 52.1748046875 471 114.174804688 454 16.1748046875 590 c 1
 34.1748046875 610 l 1
 47.1748046875 604 l 1
 166.174804688 475 92.1748046875 470 162.174804688 303 c 24
 174.174804688 276 238.174804688 273 238.174804688 273 c 1
 254.974609375 258 l 1
EndSplineSet
EndChar

StartChar: ampersand
Encoding: 38 38 67
Width: 478
VWidth: 0
Flags: HW
LayerCount: 2
Back
SplineSet
333 270 m 0
 333 287.9140625 316.415039062 303 306 303 c 0
 296.618164062 303 264.58984375 254.65625 234.8359375 195.555664062 c 1
 241.220703125 193.612304688 247.481445312 192 256 192 c 0
 299 192 333 224.479492188 333 270 c 0
208.534179688 138.543945312 m 1
 200.474609375 119.232421875 193.380859375 100.008789062 188 82 c 1
 185 16 l 1
 159 -10 l 1
 128 13 l 1
 128 13 145 116 145 183 c 0
 145 264 129 331 129 331 c 1
 163 355 l 1
 180 339 l 1
 180 339 196 266 196 177 c 1
 217.057617188 222.354492188 259.73046875 345 321 345 c 0
 348 345 380 306 380 279 c 0
 380 173.727539062 296 159 248 153 c 1
 300 115 350.983398438 56 381 56 c 0
 400 56 412 60 424 77 c 1
 447 54 l 1
 436 27 418 -10 390 -10 c 0
 333.248046875 -10 271.869140625 98.2548828125 208.534179688 138.543945312 c 1
309 34 m 3
 358.872070312 34 383.38671875 98.6123046875 383.38671875 164.028320312 c 3
 383.38671875 231.091796875 357.622070312 299 307 299 c 3
 263 299 236 255 236 255 c 1
 220 269 l 1
 220 269 266 357 325 357 c 3
 391 357 441 273 441 197 c 3
 441 120 366 -5 301 -5 c 3
 267 -5 209 31 209 31 c 1
 247 75 l 1
 251 66 269 34 309 34 c 3
202 434 m 3
 133 434 85 336 85 246 c 3
 85 113 121 44 193 44 c 3
 253 44 293 121 293 121 c 1
 315 102 l 1
 315 102 251 -19 170 -19 c 3
 115 -19 28 60.296875 28 200 c 3
 28 329 114 478 203 478 c 3
 286 478 308 429 308 429 c 1
 256 368 l 1
 250 380 238 434 202 434 c 3
EndSplineSet
Fore
SplineSet
316 88 m 1
 333 105 375 128.9375 375 201 c 3
 375 228 344 299 307 299 c 27
 267.49609375 299 253.796875 271.479492188 235 256 c 25
 220 269 l 17
 234 305 282 357 324 357 c 27
 382 357 431 283 431 250 c 3
 431 178 392 93 355 63 c 1
 377.665039062 48.078125 409.467773438 56.95703125 424 76 c 9
 448 54 l 17
 436 34 417 -10 389 -10 c 3
 365.999023438 -10 331 14.974609375 311 36 c 1
 281 8 224 -18 175 -18 c 3
 106 -18 30 77 30 167 c 27
 30 225 46 249 85 282 c 1
 66 300 57 316.890625 57 359 c 3
 57 392 97 480 163 480 c 3
 195.026367188 480 226.442382812 465.408203125 256 445 c 25
 219 404 l 17
 211 420 183 443 167 443 c 3
 122 443 93 421 93 368 c 3
 93 345 115 325 138 325 c 27
 158 325 161 325 179 332 c 9
 202 310 l 25
 181 286 l 17
 167.53515625 272.076171875 140.008789062 264 118 270 c 1
 95 240 84 214.048828125 84 173 c 7
 84 120 146 33 199 33 c 27
 235 33 264 45 286 63 c 1
 256.065429688 95.5185546875 198.7890625 154.973632812 177 204 c 25
 189 228 l 25
 207 211 l 17
 236.633789062 168.186523438 274.209960938 125.391601562 316 88 c 1
EndSplineSet
EndChar

StartChar: question
Encoding: 63 63 68
Width: 262
VWidth: 0
Flags: HW
LayerCount: 2
Back
SplineSet
127 132 m 7
 146 132 168 114 168 95 c 7
 168 78 144 59 127 59 c 7
 110 59 89 73 89 90 c 7
 89 104 113 132 127 132 c 7
62 395 m 1
 84 375 l 1
 84 375 117 436 171 436 c 3
 202 436 227 413 227 395 c 3
 227 341 79 311 79 220 c 3
 79 172 139 139 175 139 c 3
 224.163085938 139 260 172 260 172 c 1
 246 217 l 1
 221 214 l 1
 221 214 202 169 179 169 c 3
 143 169 131 195 131 214 c 3
 131 264 275 298 275 380 c 3
 275 419 225 491 168 491 c 3
 117 491 62 395 62 395 c 1
134 379 m 1
 99 357 l 1
 99 357 83 377 83 395 c 0
 83 445 146.87109375 486 201 486 c 0
 249 486 275 438 275 400 c 0
 275 318 270 299 270 217 c 0
 270 204.237304688 270.615234375 185 277 185 c 3
 286 185 292 187 296 194 c 1
 324 163 l 1
 309 149 295 130 269 130 c 3
 247.977539062 130 226.954101562 153.080078125 216.254882812 177.216796875 c 1
 196.4765625 156.408203125 175.565429688 133 141 133 c 0
 106.737304688 133 55 182.3671875 55 216 c 0
 55 299.45703125 170 357 220 384 c 1
 220 384 222 402 222 413 c 0
 222 430 216 453 191 453 c 0
 153 453 123 435 123 405 c 0
 123 394 134 379 134 379 c 1
217 345 m 1
 185 330 112 282.931640625 112 223 c 0
 112 203.686523438 129 189 146 189 c 0
 174 189 194 202 210 219 c 1
 217 345 l 1
EndSplineSet
Fore
SplineSet
151.934570312 153.35546875 m 1
 151.934570312 153.35546875 124 170.301757812 124 208 c 3
 124 258 232 320 232 392 c 7
 232 431 208 488 142 488 c 3
 80.544921875 488 40 449 40 416 c 3
 40 394 56 390 56 390 c 1
 86 378 l 1
 86 378 80.0869140625 393.525390625 80.0869140625 403.201171875 c 3
 80.0869140625 420.6171875 93.2861328125 458 128 458 c 3
 159 458 184 438 184 393 c 3
 184 339 70 289 70 213 c 3
 70 176.584960938 95.6669921875 155.3359375 139.045898438 133.81640625 c 1
 151.934570312 153.35546875 l 1
127 65 m 3
 146 65 168 47 168 28 c 3
 168 11 144 -8 127 -8 c 3
 110 -8 89 6 89 23 c 3
 89 37 113 65 127 65 c 3
EndSplineSet
EndChar

StartChar: exclam
Encoding: 33 33 69
Width: 99
VWidth: 0
Flags: HW
LayerCount: 2
Back
SplineSet
48 135 m 3
 67 135 89 117 89 98 c 3
 89 81 65 62 48 62 c 3
 31 62 10 76 10 93 c 3
 10 107 34 135 48 135 c 3
EndSplineSet
Fore
SplineSet
48 65 m 3
 67 65 89 47 89 28 c 3
 89 11 65 -8 48 -8 c 3
 31 -8 10 6 10 23 c 3
 10 37 34 65 48 65 c 3
10 431 m 0
 10 445 39 473 53 473 c 0
 72 473 89 455 89 436 c 0
 89 398.142578125 68 167 59.6953125 149 c 1
 48.6953125 139 l 1
 35.6953125 156 l 1
 35.6953125 199 10 400.373046875 10 431 c 0
EndSplineSet
EndChar

StartChar: asterisk
Encoding: 42 42 70
Width: 306
VWidth: 0
Flags: HW
LayerCount: 2
Back
Fore
SplineSet
292.63671875 340.709960938 m 0
 288.122070312 315.104492188 260.0859375 305.83203125 232.51171875 310.694335938 c 0
 210.845703125 314.514648438 196.477539062 325.171875 182.864257812 328.587890625 c 1
 171.27734375 337.73828125 l 1
 186.046875 352.396484375 l 1
 228.85546875 359.064453125 215.759765625 382.697265625 245.881835938 386.524414062 c 0
 246.8671875 386.3515625 248.025390625 387.162109375 249.995117188 386.815429688 c 0
 268.706054688 383.515625 296.110351562 360.40625 292.63671875 340.709960938 c 0
232.404296875 246.741210938 m 0
 227.715820312 220.151367188 216.017578125 199.875 191.397460938 204.216796875 c 0
 179.579101562 206.299804688 168.803710938 214.29296875 163.47265625 224.372070312 c 0
 147.190429688 258.720703125 157.9609375 285.25390625 157.321289062 304.659179688 c 1
 162.879882812 318.911132812 l 1
 181.361328125 308.543945312 l 1
 200.887695312 269.560546875 218.842773438 290.765625 232.228515625 263.01953125 c 0
 233.676757812 259.717773438 233.620117188 253.634765625 232.404296875 246.741210938 c 0
119.500976562 251.41796875 m 0
 115.680664062 229.751953125 91.4677734375 224.8828125 65.8623046875 229.397460938 c 0
 44.1962890625 233.217773438 37.9384765625 249.552734375 41.0634765625 267.279296875 c 0
 42.453125 275.158203125 46.796875 282.515625 51.77734375 287.729492188 c 0
 79.8115234375 314.264648438 107.907226562 312.357421875 126.385742188 319.252929688 c 1
 141.331054688 317.633789062 l 1
 137.684570312 296.952148438 l 1
 126.563476562 285.712890625 122.046875 277.370117188 120.831054688 270.4765625 c 0
 119.615234375 263.583007812 120.54296875 257.327148438 119.500976562 251.41796875 c 0
22.392578125 397.5 m 0
 25.5185546875 415.2265625 49.0947265625 422.239257812 62.8818359375 419.80859375 c 0
 66.8212890625 419.11328125 70.5869140625 417.434570312 73.3671875 415.928710938 c 0
 106.736328125 397.859375 114.0390625 370.170898438 126.553710938 354.763671875 c 1
 130.032226562 339.934570312 l 1
 109.120117188 336.513671875 l 1
 101.762695312 340.857421875 94.0576171875 343.231445312 89.1337890625 344.099609375 c 0
 72.3916015625 347.051757812 65.5576171875 337.086914062 51.7705078125 339.517578125 c 0
 48.81640625 340.0390625 45.05078125 341.717773438 41.28515625 343.397460938 c 0
 30.162109375 349.420898438 19.7880859375 382.727539062 22.392578125 397.5 c 0
127.991210938 437.775390625 m 0
 130.421875 451.5625 163.84375 474.1015625 177.630859375 471.669921875 c 0
 196.341796875 468.37109375 209.958007812 447.692382812 206.659179688 428.98046875 c 0
 200.060546875 391.55859375 174.921875 375.682617188 163.916992188 359.344726562 c 1
 151.34765625 351.407226562 l 1
 141.497070312 370.40625 l 1
 148.963867188 412.752929688 122.607421875 407.24609375 127.991210938 437.775390625 c 0
EndSplineSet
EndChar

StartChar: asciicircum
Encoding: 94 94 71
Width: 330
VWidth: 0
Flags: HW
HStem: 285 40<73 112> 298 39<169 247> 566 38<184.03 245.968>
VStem: 112 57<-184 285 337 555.574>
LayerCount: 2
Back
Fore
SplineSet
45 320 m 5
 15 312 l 5
 9 341 l 5
 56 386 97 433 149 477 c 5
 149 477 l 5
 149 477 l 6
 150 478 l 4
 186 472 l 5
 232 418 268 396 308 347 c 5
 316 317 l 5
 286 311 l 5
 245 354 203 391 163 436 c 5
 113 393 92 358 45 320 c 5
EndSplineSet
EndChar

StartChar: bar
Encoding: 124 124 72
Width: 224
VWidth: 0
Flags: HW
HStem: 285 40<24.9413 63.9413> 298 39<120.941 198.941> 566 38<135.971 197.909>
VStem: 63.9413 57<-184 285 337 555.574>
LayerCount: 2
Back
Fore
SplineSet
139 -172 m 2xb0
 126 -200 l 25x70
 99 -186 l 1xb0
 95 -120 85 611 85 680 c 1
 101 700 l 25
 126 672 l 1
 126 603 139 -61 139 -163 c 0
 139 -167 139 -170 139 -172 c 2xb0
EndSplineSet
EndChar

StartChar: slash
Encoding: 47 47 73
Width: 233
VWidth: 0
Flags: HW
HStem: 285 40<24.9413 63.9413> 298 39<120.941 198.941> 566 38<135.971 197.909>
VStem: 64 57<-184 285 337 555.574>
LayerCount: 2
Back
Fore
SplineSet
-16 -98 m 5
 31 59 151 447 200 604 c 5
 243 604 l 5
 200 465 77 62 27 -98 c 5
 -16 -98 l 5
EndSplineSet
EndChar

StartChar: backslash
Encoding: 92 92 74
Width: 224
VWidth: 0
Flags: HW
HStem: 285 40<24.9413 63.9413> 298 39<120.941 198.941> 566 38<135.971 197.909>
VStem: 64 57<-184 285 337 555.574>
LayerCount: 2
Back
Fore
SplineSet
243 -98 m 1
 196 59 76 447 27 604 c 1
 -16 604 l 1
 27 465 149 62 199 -98 c 1
 243 -98 l 1
EndSplineSet
EndChar

StartChar: plus
Encoding: 43 43 75
Width: 250
VWidth: 0
Flags: HW
HStem: 285 40<33 72> 298 39<129 207> 566 38<144.03 205.968>
VStem: 72 57<-184 285 337 555.574>
LayerCount: 2
Back
Fore
SplineSet
93 272 m 5xb0
 106 300 l 29x70
 133 286 l 5xb0
 137.251953125 220.251953125 147 159 147 90 c 5
 131 70 l 29
 106 98 l 5
 106 169 91.9248046875 208.590820312 93 272 c 5xb0
33 158 m 1xb0
 5 171 l 25x70
 19 198 l 1xb0
 84.748046875 202.251953125 146 212 215 212 c 1
 235 196 l 25
 207 171 l 1
 136 171 96.4091796875 156.924804688 33 158 c 1xb0
EndSplineSet
EndChar

StartChar: endash
Encoding: 8211 8211 76
Width: 520
VWidth: 0
Flags: HW
HStem: 285 40<73 112> 298 39<169 247> 566 38<184.03 245.968>
VStem: 112 57<-184 285 337 555.574>
LayerCount: 2
Back
Fore
SplineSet
73 163 m 1xb0
 45 176 l 25x70
 59 198 l 1xb0
 124.748046875 202.251953125 386 212 455 212 c 1
 475 196 l 25
 447 176 l 1
 376 176 136.409179688 161.924804688 73 163 c 1xb0
EndSplineSet
EndChar

StartChar: emdash
Encoding: 8212 8212 77
Width: 920
VWidth: 0
Flags: HW
HStem: 285 40<73 112> 298 39<169 247> 566 38<184.03 245.968>
VStem: 112 57<-184 285 337 555.574>
LayerCount: 2
Back
Fore
SplineSet
73 163 m 1xb0
 45 176 l 25x70
 59 198 l 1xb0
 124.748046875 202.251953125 786 212 855 212 c 5
 875 196 l 29
 847 176 l 5
 776 176 136.409179688 161.924804688 73 163 c 1xb0
EndSplineSet
EndChar

StartChar: quoteright
Encoding: 8217 8217 78
Width: 99
VWidth: 0
Flags: HW
LayerCount: 2
Back
Fore
SplineSet
43.0693359375 402 m 1
 43.0458984375 402 43.0234375 402 43 402 c 0
 26 402 10 416 10 433 c 0
 10 447 39 475 53 475 c 0
 72 475 89 457 89 438 c 0
 89 400.142578125 68 369 59.6953125 351 c 1
 48.6953125 341 l 1
 35.6953125 358 l 1
 37.537109375 375.1875 40.2265625 376.4609375 43.0693359375 402 c 1
EndSplineSet
EndChar

StartChar: quoteleft
Encoding: 8216 8216 79
Width: 99
VWidth: 0
Flags: HW
LayerCount: 2
Back
Fore
SplineSet
55.9306640625 414 m 1
 55.9541015625 414 55.9765625 414 56 414 c 0
 73 414 89 400 89 383 c 0
 89 369 60 341 46 341 c 0
 27 341 10 359 10 378 c 0
 10 415.857421875 31 447 39.3046875 465 c 1
 50.3046875 475 l 1
 63.3046875 458 l 1
 61.462890625 440.8125 58.7734375 439.5390625 55.9306640625 414 c 1
EndSplineSet
EndChar

StartChar: quotedblleft
Encoding: 8220 8220 80
Width: 223
VWidth: 0
Flags: HW
LayerCount: 2
Back
Fore
SplineSet
159.930664062 414 m 1
 159.954101562 414 159.9765625 414 160 414 c 0
 177 414 193 400 193 383 c 0
 193 369 164 341 150 341 c 0
 131 341 114 359 114 378 c 0
 114 415.857421875 135 447 143.3046875 465 c 1
 154.3046875 475 l 1
 167.3046875 458 l 1
 165.462890625 440.8125 162.7734375 439.5390625 159.930664062 414 c 1
55.9306640625 414 m 1
 55.9541015625 414 55.9765625 414 56 414 c 0
 73 414 89 400 89 383 c 0
 89 369 60 341 46 341 c 0
 27 341 10 359 10 378 c 0
 10 415.857421875 31 447 39.3046875 465 c 1
 50.3046875 475 l 1
 63.3046875 458 l 1
 61.462890625 440.8125 58.7734375 439.5390625 55.9306640625 414 c 1
EndSplineSet
EndChar

StartChar: quotedblright
Encoding: 8221 8221 81
Width: 214
VWidth: 0
Flags: HW
LayerCount: 2
Back
Fore
SplineSet
158.069335938 402 m 5
 158.045898438 402 158.0234375 402 158 402 c 4
 141 402 125 416 125 433 c 4
 125 447 154 475 168 475 c 4
 187 475 204 457 204 438 c 4
 204 400.142578125 183 369 174.6953125 351 c 5
 163.6953125 341 l 5
 150.6953125 358 l 5
 152.537109375 375.1875 155.2265625 376.4609375 158.069335938 402 c 5
43.0693359375 402 m 1
 43.0458984375 402 43.0234375 402 43 402 c 0
 26 402 10 416 10 433 c 0
 10 447 39 475 53 475 c 0
 72 475 89 457 89 438 c 0
 89 400.142578125 68 369 59.6953125 351 c 1
 48.6953125 341 l 1
 35.6953125 358 l 1
 37.537109375 375.1875 40.2265625 376.4609375 43.0693359375 402 c 1
EndSplineSet
EndChar

StartChar: at
Encoding: 64 64 82
Width: 433
VWidth: 0
Flags: HW
LayerCount: 2
Back
SplineSet
195 428 m 7
 120 428 89 331 89 231 c 7
 89 98 141 45 193 45 c 7
 278 45 306 140 306 233 c 7
 306 360 279 428 195 428 c 7
30 191 m 7
 30 308 93 472 217 472 c 7
 277.208007812 472 377 402 377 265 c 7
 377 118 279 -11 171 -11 c 7
 91 -11 30 98 30 191 c 7
EndSplineSet
Fore
SplineSet
241 214 m 9
 240 225 241 230 241 241 c 27
 241 251 242 257 244 267 c 17
 235 281 226 285 212 285 c 27
 177 285 155 251 155 216 c 27
 155 199 164 177 181 177 c 27
 209 177 221 190 241 214 c 9
346 50 m 9
 364 35 l 17
 338 4 292 -25 238 -25 c 7
 135.991936008 -25 31 50.9853515625 31 199 c 3
 31 391 121 472 222 472 c 3
 333 472 398 382 398 271 c 27
 398 206 355 151 311 151 c 3
 285 151 266 165 256 190 c 1
 241 171 214 142 178 142 c 27
 145 142 124 175 124 208 c 27
 124 259 158 306 209 306 c 3
 240 306 249 290 254 280 c 9
 271 294 l 25
 281 277 l 25
 279 259 276 249 276 231 c 27
 276 213 295 197 313 197 c 3
 344 197 343 245.962890625 343 290 c 3
 343 347 281 426 213 426 c 3
 133 426 87 350 87 215 c 3
 87 113 146 21 244 21 c 3
 285 21 319 30 346 50 c 9
EndSplineSet
EndChar

StartChar: equal
Encoding: 61 61 83
Width: 330
VWidth: 0
Flags: HW
HStem: 285 40<73 112> 298 39<169 247> 566 38<184.03 245.968>
VStem: 112 57<-184 285 337 555.574>
LayerCount: 2
Back
Fore
SplineSet
73 223 m 1xb0
 45 236 l 25x70
 59 263 l 1xb0
 124.748046875 267.251953125 186 277 255 277 c 1
 275 261 l 25
 247 236 l 1
 176 236 136.409179688 221.924804688 73 223 c 1xb0
73 93 m 1xb0
 45 106 l 25x70
 59 133 l 1xb0
 124.748046875 137.251953125 186 147 255 147 c 1
 275 131 l 25
 247 106 l 1
 176 106 136.409179688 91.9248046875 73 93 c 1xb0
EndSplineSet
EndChar

StartChar: underscore
Encoding: 95 95 84
Width: 330
VWidth: 0
Flags: HW
HStem: 285 40<73 112> 298 39<169 247> 566 38<184.03 245.968>
VStem: 112 57<-184 285 337 555.574>
LayerCount: 2
Back
Fore
SplineSet
13 -125 m 1xb0
 -15 -112 l 25x70
 -1 -85 l 1xb0
 335 -85 l 1
 355 -101 l 25
 327 -126 l 1
 13 -125 l 1xb0
EndSplineSet
EndChar

StartChar: asciitilde
Encoding: 126 126 85
Width: 330
VWidth: 0
Flags: HW
HStem: 285 40<73 112> 298 39<169 247> 566 38<184.03 245.968>
VStem: 112 57<-184 285 337 555.574>
LayerCount: 2
Back
Fore
SplineSet
66 157 m 1xb0
 45 171 l 17x70
 45 171 78.8206799486 232.967773438 108 232.967773438 c 3
 130.913085938 232.967773438 181.727539062 191.66015625 205 191.66015625 c 3
 233.135742188 191.66015625 251 214.475585938 251 215 c 1
 275 196 l 17
 275 196 233.762508226 147.19921875 203 147.19921875 c 3
 178.567382812 147.19921875 139.969726562 185.22265625 108 185.22265625 c 3
 78.677734375 185.22265625 66 157 66 157 c 1xb0
EndSplineSet
EndChar

StartChar: less
Encoding: 60 60 86
Width: 244
VWidth: 0
Flags: HW
HStem: 285 40<-6.0587 32.9413> 298 39<89.941 167.941> 566 38<104.971 166.909>
VStem: 33 57<-184 285 337 555.574>
LayerCount: 2
Back
SplineSet
152 272 m 5xb0
 165 300 l 29x70
 192 286 l 5xb0
 196.251953125 220.251953125 206 159 206 90 c 5
 190 70 l 29
 165 98 l 5
 165 169 150.924804688 208.590820312 152 272 c 5xb0
92 158 m 5xb0
 64 171 l 29x70
 78 198 l 5xb0
 143.748046875 202.251953125 205 212 274 212 c 5
 294 196 l 29
 266 171 l 5
 195 171 155.409179688 156.924804688 92 158 c 5xb0
EndSplineSet
Fore
SplineSet
193 282 m 5
 162 249 129 214 95 179 c 5
 130 145 165 112 198 80 c 5
 172 47 l 5
 127 90 78 136 35 177 c 5
 72 216 113 258 152 299 c 5
 193 282 l 5
EndSplineSet
EndChar

StartChar: greater
Encoding: 62 62 87
Width: 244
VWidth: 0
Flags: HW
HStem: 285 40<-6.0587 32.9413> 298 39<89.941 167.941> 566 38<104.971 166.909>
VStem: 33 57<-184 285 337 555.574>
LayerCount: 2
Back
Fore
SplineSet
40 64 m 5
 71 97 104 132 138 167 c 5
 103 201 68 234 35 266 c 5
 61 299 l 5
 106 256 155 210 198 169 c 5
 161 130 120 88 81 47 c 5
 40 64 l 5
EndSplineSet
EndChar

StartChar: numbersign
Encoding: 35 35 88
Width: 365
VWidth: 0
Flags: HW
HStem: 285 40<168 207> 298 39<264 342> 566 38<279.03 340.968>
VStem: 207 57<-184 285 337 555.574>
LayerCount: 2
Back
Fore
SplineSet
40.5 173 m 1
 12.5 186 l 1
 26.5 213 l 1
 43.5 214 67.5 216 94.5 217 c 1
 100.5 246 103.5 252 109.5 281 c 1
 93.5 280 79.5 280 67.5 280 c 1
 39.5 293 l 1
 53.5 320 l 1
 70.5 321 93.5 323 118.5 324 c 1
 121.5 341 128.5 381 131.5 398 c 1
 176.5 398 l 1
 173.5 382 166.5 343 163.5 326 c 1
 188.5 327 214.5 329 239.5 330 c 1
 242.5 345 248.5 383 251.5 398 c 1
 296.5 398 l 1
 293.5 384 287.5 346 284.5 331 c 1
 301.5 331 316.5 332 329.5 332 c 1
 349.5 316 l 1
 321.5 291 l 1
 308.5 291 292.5 291 276.5 290 c 1
 270.5 260 266.5 252 260.5 222 c 1
 284.5 223 306.5 223 322.5 223 c 1
 342.5 207 l 1
 314.5 182 l 1
 297.5 182 276.5 181 252.5 180 c 1
 246.5 153 240.5 127 235.5 101 c 1
 190.5 101 l 1
 195.5 126 200.5 153 206.5 179 c 1
 181.5 178 155.5 176 130.5 175 c 1
 125.5 150 120.5 125 115.5 101 c 1
 70.5 101 l 1
 75.5 125 80.5 149 85.5 174 c 1
 68.5 174 53.5 173 40.5 173 c 1
215.5 221 m 1
 221.5 251 225.5 258 231.5 288 c 1
 206.5 287 180.5 284 155.5 283 c 1
 149.5 254 146.5 247 140.5 218 c 1
 165.5 219 190.5 220 215.5 221 c 1
EndSplineSet
EndChar

StartChar: percent
Encoding: 37 37 89
Width: 583
VWidth: 0
Flags: HW
LayerCount: 2
Back
Fore
SplineSet
319 108 m 0
 319 177 363 274 437 274 c 0
 489 274 538 233 538 152 c 0
 538 65 474 -11 410 -11 c 0
 352 -11 319 53 319 108 c 0
424 223 m 0
 379 223 369 191 369 132 c 0
 369 71 393 43 424 43 c 0
 474 43 484 78 484 133 c 0
 484 187 468 223 424 223 c 0
19 313 m 0
 19 382 63 479 137 479 c 0
 184.570198882 479 229.629757429 444.687915426 236.96164768 376.829333843 c 1
 247.622183536 368.339356231 260.275515343 364.040039063 272.799804688 364.040039062 c 0
 288.607424885 364.040039062 301.286784157 367.986581728 311.245179001 374.851694669 c 1
 320.809073485 397.22207087 344.163331424 454.220048928 350 469 c 1
 403 469 l 1
 347 330 269 160 187 0 c 1
 134 0 l 1
 190.482775935 112.250580023 244.920812901 223.478790562 294.024766601 335.146562413 c 1
 282.432349666 330.956820006 270.416370145 328.6796875 258.400390625 328.6796875 c 0
 250.523866721 328.6796875 243.111545323 329.69625859 236.183702665 331.571246139 c 1
 225.340033566 255.709751835 167.670016783 194 110 194 c 0
 52 194 19 258 19 313 c 0
124 432 m 0
 79 432 69 396 69 337 c 0
 69 276 93 246 124 246 c 0
 174 246 184 283 184 338 c 0
 184 353.578489982 182.668371193 367.991804758 179.716991817 380.615680532 c 0
 176.03246292 388.086075561 173.190682679 395.955086465 171.229044302 403.931404577 c 0
 161.774380311 421.473854623 146.571341037 432 124 432 c 0
EndSplineSet
EndChar

StartChar: dollar
Encoding: 36 36 90
Width: 299
VWidth: 0
Flags: HW
HStem: 285 40<24.9413 63.9413> 298 39<120.941 198.941> 566 38<135.971 197.909>
VStem: 63.9413 57<-184 285 337 555.574>
LayerCount: 2
Back
Fore
SplineSet
172.25 -42 m 2xb0
 162.5 -70 l 25x70
 142.25 -56 l 1xb0
 139.25 10 131.75 431 131.75 500 c 1
 143.75 520 l 25
 162.5 492 l 1
 162.5 423 172.25 69 172.25 -33 c 0
 172.25 -37 172.25 -40 172.25 -42 c 2xb0
14.4501953125 129.849609375 m 1
 35.150390625 148.75 l 1
 35.150390625 148.75 92.75 64.150390625 153.950195312 64.150390625 c 3
 191.75 64.150390625 231.349609375 91.150390625 231.349609375 112.75 c 3
 231.349609375 206.349609375 35.150390625 232.450195312 35.150390625 344.049804688 c 3
 35.150390625 402.549804688 108.049804688 443.049804688 152.150390625 443.049804688 c 3
 212.450195312 443.049804688 256.549804688 402.549804688 256.549804688 402.549804688 c 1
 243.950195312 362.049804688 l 1
 218.75 366.549804688 l 1
 218.75 366.549804688 204.349609375 417.849609375 157.549804688 417.849609375 c 3
 113.450195312 417.849609375 81.9501953125 393.549804688 81.9501953125 370.150390625 c 3
 81.9501953125 291.849609375 274.549804688 234.25 274.549804688 147.849609375 c 3
 274.549804688 100.150390625 214.25 11.9501953125 144.049804688 11.9501953125 c 3
 81.9501953125 11.9501953125 14.4501953125 129.849609375 14.4501953125 129.849609375 c 1
EndSplineSet
EndChar

StartChar: grave
Encoding: 96 96 91
Width: 252
VWidth: 0
Flags: HW
HStem: 285 40<73 112> 298 39<169 247> 566 38<184.03 245.968>
VStem: 112 57<-184 285 337 555.574>
LayerCount: 2
Back
Fore
SplineSet
48.482421875 480.686523438 m 1xb0
 37.8759765625 509.678710938 l 25x70
 92.8671875 518.87109375 l 1xb0
 128.365234375 475.38671875 128.569335938 469.967773438 167.360351562 421.176757812 c 1
 168.188476562 400.721679688 l 25
 140.711914062 402.842773438 l 1
 100 441 88 445 48.482421875 480.686523438 c 1xb0
EndSplineSet
EndChar

StartChar: one
Encoding: 49 49 92
Width: 150
VWidth: 0
Flags: HW
HStem: -5 41<90.3345 143.776>
VStem: 27 60<37.015 457.089> 34 59.9688<70.8989 597.958>
LayerCount: 2
Back
Fore
SplineSet
109 315 m 3x80
 101 148 l 0
 101 67 115 9 115 9 c 1x40
 72 -15 l 1
 55 1 l 1
 55 1 41 65 41 154 c 3x80
 49 321 l 0
 49 402 35 460 35 460 c 1
 78 484 l 1
 95 468 l 1
 95 468 109 404 109 315 c 3x80
EndSplineSet
EndChar

StartChar: zero
Encoding: 48 48 93
Width: 322
VWidth: 0
Flags: HW
LayerCount: 2
Back
Fore
SplineSet
149 422 m 3
 93.2734375 422 80 365 80 231 c 3
 80 95 110 44 149 44 c 3
 212 44 224 103 224 232 c 3
 224 359 204 422 149 422 c 3
18 201 m 3
 18 347.323242188 73 469 165 469 c 3
 230 469 291 417 291 256 c 3
 291 87 211 -8 131 -8 c 3
 58.97265625 -8 18 72 18 201 c 3
EndSplineSet
EndChar
